{"glyphs":{"0":{"ha":692,"x_min":39,"x_max":650,"o":"m 39 528 q 111 819 37 678 q 355 970 184 960 q 583 826 515 961 q 650 548 652 691 l 650 459 q 588 144 654 294 q 342 -17 523 -6 q 103 134 170 -7 q 39 431 36 275 l 39 528 m 355 937 q 209 822 245 930 q 175 584 172 713 l 175 342 q 204 135 172 245 q 342 15 237 24 q 441 53 406 16 q 492 148 476 90 q 511 271 507 206 q 514 393 514 336 l 514 634 q 484 830 516 731 q 355 937 451 929 z "},"1":{"ha":692,"x_min":109,"x_max":583,"o":"m 122 26 q 269 50 237 22 q 297 178 301 77 l 297 792 q 291 824 298 811 q 264 837 284 836 q 180 805 235 833 q 119 773 125 777 l 109 798 l 416 976 l 416 178 q 443 48 412 74 q 583 26 473 22 l 583 0 l 122 0 l 122 26 z "},"2":{"ha":692,"x_min":39,"x_max":669,"o":"m 292 870 q 151 821 205 869 q 66 690 97 772 l 39 695 q 131 885 57 804 q 345 970 205 966 q 543 893 484 966 q 600 728 602 820 q 558 567 599 645 q 453 412 518 488 q 312 259 387 336 q 164 104 236 182 l 464 104 q 579 125 545 102 q 644 209 613 148 l 669 201 l 591 0 l 39 0 l 39 23 q 198 201 119 117 q 340 360 277 284 q 443 510 404 437 q 484 659 482 584 q 436 804 484 741 q 292 870 389 867 z "},"3":{"ha":692,"x_min":39,"x_max":608,"o":"m 75 731 l 53 748 q 158 901 87 835 q 347 970 229 967 q 499 917 444 968 q 555 792 554 865 q 522 674 555 728 q 422 570 488 620 q 564 477 518 542 q 608 320 609 412 q 507 90 607 190 q 225 -17 408 -11 q 85 9 131 -16 q 39 79 39 35 q 53 114 39 100 q 94 128 67 127 q 205 78 159 122 q 309 28 252 35 q 455 104 405 33 q 505 267 505 176 q 435 415 506 357 q 211 475 364 473 l 211 500 q 391 587 335 519 q 447 731 448 655 q 403 829 446 787 q 289 873 361 871 q 173 838 224 873 q 75 731 121 802 z "},"4":{"ha":692,"x_min":36,"x_max":647,"o":"m 408 334 l 408 823 l 83 334 l 408 334 m 514 0 l 408 0 l 408 242 l 36 242 l 36 351 l 453 970 l 514 970 l 514 334 l 647 334 l 647 242 l 514 242 l 514 0 z "},"5":{"ha":692,"x_min":28,"x_max":611,"o":"m 75 584 l 236 954 l 528 954 q 567 964 551 954 q 591 989 583 975 l 611 981 l 553 848 l 241 848 l 178 706 q 485 577 385 674 q 583 334 584 481 q 484 86 582 188 q 205 -20 386 -15 q 78 5 127 -18 q 28 70 29 28 q 43 107 28 94 q 83 120 58 120 q 192 74 155 115 q 286 28 229 34 q 441 112 389 34 q 494 276 494 189 q 387 490 494 415 q 75 584 280 566 z "},"6":{"ha":692,"x_min":56,"x_max":642,"o":"m 178 353 q 209 139 174 256 q 353 12 243 22 q 485 93 450 17 q 517 254 519 169 q 477 456 519 363 q 328 553 436 548 q 240 526 272 551 q 195 484 208 501 q 183 410 188 450 q 178 353 178 370 m 56 353 q 177 755 52 579 q 611 970 303 932 l 611 943 q 324 797 422 909 q 205 540 225 685 q 284 588 239 570 q 383 606 329 606 q 582 512 520 602 q 642 307 643 422 q 572 83 642 178 q 355 -17 503 -12 q 126 96 198 -12 q 56 353 54 203 z "},"7":{"ha":692,"x_min":39,"x_max":661,"o":"m 220 840 q 126 811 156 840 q 66 720 96 783 l 39 720 l 127 954 l 661 954 l 330 -17 l 248 -17 l 542 840 l 220 840 z "},"8":{"ha":692,"x_min":56,"x_max":633,"o":"m 386 551 q 488 655 460 604 q 514 770 515 707 q 474 885 514 836 q 353 937 434 934 q 229 892 277 935 q 180 784 182 850 q 236 659 182 708 q 386 551 291 610 m 86 726 q 154 896 86 825 q 353 970 221 967 q 543 910 481 968 q 603 770 605 852 q 552 631 602 682 q 411 534 501 581 q 566 411 501 478 q 633 239 631 344 q 556 63 633 138 q 336 -17 479 -12 q 139 47 218 -15 q 56 218 59 110 q 115 381 58 319 q 256 484 172 442 q 142 579 194 523 q 86 726 90 635 m 153 231 q 200 85 152 149 q 353 18 249 21 q 485 70 440 20 q 530 198 530 121 q 458 340 528 276 q 289 467 389 404 q 185 360 218 418 q 153 231 153 303 z "},"9":{"ha":692,"x_min":53,"x_max":639,"o":"m 517 598 q 486 812 520 696 q 342 939 451 929 q 210 858 244 934 q 178 698 176 783 q 217 496 176 588 q 367 398 258 404 q 454 426 422 401 q 500 467 486 450 q 512 541 507 501 q 517 598 517 581 m 639 598 q 517 196 643 372 q 83 -17 391 20 l 83 9 q 371 154 272 42 q 489 412 469 267 q 410 364 455 382 q 311 345 366 346 q 113 440 174 350 q 53 645 52 530 q 122 869 52 773 q 339 970 192 966 q 568 857 496 966 q 639 598 640 749 z "}," ":{"ha":344,"x_min":0,"x_max":0,"o":""},"¬":{"ha":1153,"x_min":172,"x_max":981,"o":"m 172 576 l 981 576 l 981 239 l 889 239 l 889 484 l 172 484 l 172 576 z "},"π":{"ha":939,"x_min":25,"x_max":922,"o":"m 25 331 q 100 524 45 457 q 272 592 154 591 l 922 592 l 895 462 l 664 462 q 642 248 646 340 q 634 94 637 156 q 615 0 631 31 q 558 -31 599 -31 q 514 -10 528 -29 q 500 39 500 9 q 513 116 500 76 q 547 205 526 156 q 590 317 568 254 q 628 462 611 380 l 364 462 q 340 252 345 342 q 333 97 336 161 q 313 2 329 34 q 256 -31 297 -29 q 213 -11 227 -29 q 200 39 200 7 q 212 112 200 75 q 243 197 224 149 q 285 309 262 245 q 328 462 307 373 l 192 462 q 104 431 134 463 q 61 331 75 399 l 25 331 z "},"∑":{"ha":914,"x_min":17,"x_max":852,"o":"m 17 992 l 606 992 q 639 997 625 992 q 653 1015 652 1002 l 639 1076 l 692 1076 l 775 809 l 725 809 q 668 921 688 894 q 589 945 648 948 l 225 945 l 631 515 l 631 495 q 433 321 550 423 q 231 148 315 220 l 708 148 q 763 172 749 146 q 803 281 777 198 l 852 281 l 742 -94 l 689 -94 q 703 -53 696 -77 q 711 -17 711 -28 q 705 -3 711 -6 q 686 0 699 0 l 17 0 l 17 26 l 500 445 l 17 956 l 17 992 z "},"Ω":{"ha":1061,"x_min":20,"x_max":1042,"o":"m 103 595 q 231 895 109 783 q 530 1009 354 1006 q 830 895 707 1006 q 958 595 953 783 q 928 422 964 526 q 750 153 892 318 l 750 134 l 961 134 l 1003 259 l 1042 259 l 964 0 l 623 0 q 764 361 735 200 q 789 595 793 522 q 784 677 789 620 q 755 801 779 735 q 679 914 732 867 q 530 962 627 960 q 380 914 433 960 q 303 801 326 867 q 276 677 281 735 q 272 595 271 620 q 297 361 268 522 q 439 0 326 200 l 97 0 l 20 259 l 58 259 l 100 134 l 311 134 l 311 153 q 133 422 169 318 q 103 595 98 526 z "},"∞":{"ha":1153,"x_min":150,"x_max":1003,"o":"m 353 670 q 498 600 446 664 q 570 490 549 536 q 651 611 595 554 q 783 673 706 669 q 937 601 873 671 q 1003 406 1000 530 q 952 229 1003 307 q 803 148 901 152 q 660 214 712 153 q 583 326 608 275 q 503 205 555 261 q 367 145 452 149 q 218 220 282 147 q 150 412 153 293 q 199 585 149 505 q 353 670 249 665 m 200 404 q 237 289 201 334 q 339 242 274 243 q 454 299 408 244 q 536 442 500 355 q 468 530 513 496 q 361 565 424 564 q 246 521 291 564 q 200 404 201 477 m 814 573 q 685 498 731 567 q 616 373 638 429 q 682 290 642 327 q 798 251 722 253 q 908 294 865 252 q 953 414 951 337 q 916 530 952 487 q 814 573 879 572 z "},"≥":{"ha":1153,"x_min":178,"x_max":975,"o":"m 975 104 l 975 12 l 178 12 l 178 104 l 975 104 m 178 809 l 975 543 l 975 465 l 178 198 l 178 295 l 814 503 l 178 712 l 178 809 z "},"≤":{"ha":1156,"x_min":178,"x_max":975,"o":"m 975 809 l 975 712 l 339 503 l 975 295 l 975 198 l 178 465 l 178 543 l 975 809 m 178 104 l 975 104 l 975 12 l 178 12 l 178 104 z "},"÷":{"ha":1153,"x_min":172,"x_max":978,"o":"m 172 454 l 978 454 l 978 362 l 172 362 l 172 454 m 492 656 q 517 714 493 690 q 575 740 541 739 q 633 714 609 739 q 659 656 657 690 q 633 598 657 622 q 575 573 609 574 q 517 598 541 574 q 492 656 493 622 m 492 159 q 517 217 493 193 q 575 242 541 241 q 633 217 609 241 q 659 159 657 193 q 633 101 657 125 q 575 76 609 77 q 517 101 541 77 q 492 159 493 125 z "},"!":{"ha":450,"x_min":142,"x_max":306,"o":"m 225 976 q 287 947 270 975 q 302 870 303 918 l 236 254 l 208 254 l 147 870 q 164 947 146 918 q 225 976 182 975 m 222 -22 q 164 0 186 -21 q 142 56 142 22 q 163 115 142 91 q 222 140 184 139 q 283 115 260 139 q 306 56 305 91 q 282 0 305 22 q 222 -22 258 -21 z "},"\"":{"ha":464,"x_min":58,"x_max":403,"o":"m 106 581 l 58 915 q 76 967 59 950 q 119 984 92 984 q 161 967 145 984 q 178 915 177 950 l 131 581 l 106 581 m 355 581 l 330 581 l 283 915 q 301 967 284 950 q 345 984 317 984 q 386 967 370 984 q 403 915 402 950 l 355 581 z "},"#":{"ha":1064,"x_min":58,"x_max":1003,"o":"m 142 581 l 175 673 l 403 673 l 511 981 l 614 981 l 505 673 l 697 673 l 806 981 l 908 981 l 800 673 l 1003 673 l 970 581 l 766 581 l 700 393 l 917 393 l 884 300 l 667 300 l 558 -3 l 456 -3 l 564 300 l 372 300 l 264 -3 l 161 -3 l 269 300 l 58 300 l 92 393 l 302 393 l 370 581 l 142 581 m 472 581 l 406 393 l 597 393 l 664 581 l 472 581 z "},"$":{"ha":692,"x_min":69,"x_max":611,"o":"m 575 895 l 575 692 l 550 692 q 491 835 538 770 q 353 912 444 900 l 353 562 q 429 515 386 543 q 513 449 472 487 q 582 360 554 410 q 611 248 610 311 q 541 70 610 135 q 353 -5 471 5 l 353 -119 l 302 -119 l 302 -5 q 183 10 247 -3 q 69 45 119 22 l 69 248 l 97 248 q 161 110 110 174 q 302 34 213 46 l 302 445 q 142 574 206 507 q 75 736 78 641 q 139 889 77 829 q 302 951 201 949 l 302 1053 l 353 1053 l 353 951 q 466 935 401 950 q 575 895 530 919 m 302 912 q 207 867 238 904 q 175 779 175 829 q 215 669 177 709 q 302 598 253 629 l 302 912 m 353 34 q 476 105 450 60 q 500 206 503 150 q 455 328 498 281 q 353 414 413 374 l 353 34 z "},"%":{"ha":1300,"x_min":100,"x_max":1200,"o":"m 711 867 q 863 909 793 869 q 972 1001 933 949 l 1028 1001 l 339 -41 l 283 -41 l 905 901 q 814 855 863 873 q 700 837 766 838 q 636 845 667 838 q 581 862 606 853 l 583 798 q 500 572 582 699 q 272 434 419 446 q 144 487 189 436 q 100 612 100 538 q 211 856 107 745 q 419 973 314 966 q 498 957 469 973 q 550 921 526 941 q 610 885 574 901 q 711 867 646 869 m 880 -17 q 758 42 801 -14 q 714 173 715 98 q 815 406 719 290 q 1039 531 911 522 q 1162 482 1124 529 q 1200 362 1200 435 q 1107 119 1196 243 q 880 -17 1017 -6 m 806 125 q 828 58 806 85 q 900 28 850 30 q 1077 142 998 36 q 1161 368 1156 248 q 1135 454 1161 420 q 1053 490 1109 488 q 892 340 972 475 q 806 125 812 205 m 192 573 q 215 501 192 528 q 283 473 238 473 q 471 592 397 483 q 547 789 545 701 q 546 836 548 816 q 536 878 545 856 q 479 907 503 890 q 433 926 456 924 q 274 776 351 910 q 192 573 197 642 z "},"&":{"ha":1133,"x_min":66,"x_max":1080,"o":"m 472 598 q 601 696 557 640 q 644 823 644 752 q 615 903 644 873 q 533 934 586 933 q 453 894 481 932 q 425 798 425 856 q 438 705 425 762 q 472 598 451 648 m 542 970 q 672 926 633 969 q 711 814 712 882 q 649 669 710 730 q 489 559 589 608 q 578 402 519 494 q 684 256 637 311 q 770 384 728 309 q 814 528 811 459 q 797 574 814 556 q 733 592 779 591 l 733 620 l 1014 620 l 1014 592 q 941 567 970 592 q 885 492 913 541 q 817 374 857 444 q 711 218 777 305 q 812 125 752 171 q 939 76 873 79 q 1015 99 985 77 q 1064 148 1046 121 l 1080 128 q 997 33 1051 79 q 864 -17 943 -13 q 719 34 783 -12 q 623 115 655 79 q 494 24 575 64 q 311 -20 414 -16 q 133 44 197 -17 q 66 203 68 106 q 163 411 73 330 q 358 540 253 492 q 330 630 345 575 q 314 731 315 685 q 372 900 314 832 q 542 970 429 968 m 203 279 q 257 125 204 193 q 403 54 310 58 q 511 84 456 56 q 597 145 566 113 q 471 313 526 227 q 375 500 416 398 q 241 395 281 449 q 203 279 201 341 z "},"’":{"ha":345,"x_min":69,"x_max":272,"o":"m 272 857 q 230 723 273 787 q 86 606 187 659 l 69 626 q 181 724 146 677 q 216 812 217 770 q 210 833 216 828 q 189 837 203 838 q 168 836 178 837 q 147 834 158 834 q 100 852 119 835 q 81 895 81 869 q 98 951 80 927 q 164 976 117 975 q 247 937 222 974 q 272 857 273 901 z "},"(":{"ha":530,"x_min":86,"x_max":478,"o":"m 475 -330 l 456 -353 q 165 -27 247 -198 q 86 328 83 143 q 169 703 83 532 q 458 1017 254 874 l 478 995 q 262 686 311 848 q 220 328 214 523 q 266 -21 216 142 q 475 -330 317 -184 z "},")":{"ha":530,"x_min":50,"x_max":441,"o":"m 309 328 q 262 683 313 516 q 50 995 212 849 l 72 1017 q 360 697 276 863 q 441 328 444 531 q 366 -25 446 144 q 69 -353 286 -194 l 50 -330 q 262 -28 212 -188 q 309 328 313 132 z "},"*":{"ha":692,"x_min":122,"x_max":564,"o":"m 122 842 q 136 876 123 865 q 170 887 150 887 q 237 842 218 884 q 334 759 256 800 q 314 877 329 860 q 297 943 299 894 q 303 971 296 956 q 342 987 311 985 q 380 971 372 985 q 389 943 389 956 q 371 877 387 894 q 353 759 355 860 q 449 842 431 800 q 517 887 468 884 q 550 876 536 887 q 564 842 563 865 q 502 788 561 791 q 361 743 443 785 q 502 696 443 700 q 564 642 561 693 q 550 609 563 619 q 517 598 536 598 q 449 643 468 602 q 353 726 431 685 q 371 608 355 625 q 389 543 387 591 q 380 514 389 528 q 342 498 372 499 q 303 514 311 499 q 297 543 296 528 q 315 608 299 591 q 334 726 332 625 q 237 643 256 685 q 170 598 218 602 q 136 609 150 598 q 122 642 123 619 q 184 696 125 693 q 325 743 243 700 q 184 788 243 785 q 122 842 125 791 z "},"+":{"ha":1153,"x_min":172,"x_max":981,"o":"m 530 365 l 172 365 l 172 456 l 530 456 l 530 820 l 623 820 l 623 456 l 981 456 l 981 365 l 623 365 l 623 0 l 530 0 l 530 365 z "},",":{"ha":345,"x_min":58,"x_max":267,"o":"m 78 -239 l 58 -220 q 174 -116 137 -166 q 211 -25 212 -66 q 200 -4 210 -8 q 175 0 190 1 q 158 -1 165 0 q 142 -3 151 -2 q 88 17 109 -1 q 66 64 67 35 q 87 120 66 97 q 150 145 109 144 q 238 110 210 144 q 267 20 267 75 q 224 -119 268 -53 q 78 -239 180 -186 z "},"-":{"ha":456,"x_min":58,"x_max":392,"o":"m 392 378 l 392 279 l 58 279 l 58 378 l 392 378 z "},".":{"ha":345,"x_min":86,"x_max":253,"o":"m 86 67 q 108 124 86 102 q 170 148 130 147 q 231 122 210 146 q 253 64 253 97 q 232 8 253 32 q 170 -17 212 -15 q 107 9 128 -15 q 86 67 86 33 z "},"/":{"ha":375,"x_min":-12,"x_max":386,"o":"m 45 -127 l -12 -127 l 328 976 l 386 976 l 45 -127 z "},":":{"ha":378,"x_min":103,"x_max":269,"o":"m 103 578 q 127 636 104 613 q 186 659 150 659 q 245 635 222 659 q 269 576 269 612 q 246 516 269 539 q 186 492 224 493 q 126 519 148 494 q 103 578 104 544 m 186 -17 q 126 9 148 -15 q 103 67 104 33 q 127 124 104 102 q 186 148 150 147 q 245 124 222 147 q 269 64 269 101 q 246 6 269 28 q 186 -17 224 -16 z "},";":{"ha":378,"x_min":78,"x_max":286,"o":"m 205 1 l 158 -3 q 106 14 125 -2 q 86 62 87 31 q 105 120 85 96 q 172 145 125 144 q 260 107 233 144 q 286 18 287 71 q 235 -130 286 -66 q 94 -239 184 -194 l 78 -220 q 190 -123 149 -174 q 231 -28 230 -72 q 228 -6 231 -12 q 205 1 224 1 m 97 578 q 120 636 98 613 q 178 659 142 659 q 237 635 214 659 q 261 576 260 612 q 238 516 260 539 q 178 492 216 493 q 119 519 140 494 q 97 578 98 544 z "},"<":{"ha":1153,"x_min":178,"x_max":970,"o":"m 178 454 l 970 779 l 970 675 l 314 409 l 970 142 l 970 39 l 178 365 l 178 454 z "},"=":{"ha":1153,"x_min":172,"x_max":978,"o":"m 978 229 l 172 229 l 172 320 l 978 320 l 978 229 m 172 495 l 172 587 l 978 587 l 978 495 l 172 495 z "},">":{"ha":1153,"x_min":180,"x_max":972,"o":"m 180 779 l 972 454 l 972 365 l 180 39 l 180 142 l 836 409 l 180 675 l 180 779 z "},"?":{"ha":681,"x_min":94,"x_max":591,"o":"m 228 731 q 210 691 227 706 q 164 675 192 676 q 112 704 130 677 q 94 768 94 731 q 165 913 97 853 q 334 976 233 973 q 521 912 452 974 q 591 756 590 850 q 553 613 589 673 q 470 502 518 553 q 385 393 422 451 q 342 256 347 336 l 311 256 q 341 408 318 345 q 392 524 364 471 q 439 632 419 577 q 461 759 460 687 q 420 883 461 834 q 300 934 379 932 q 221 909 254 932 q 186 854 187 886 q 207 804 189 824 q 228 731 225 784 m 325 145 q 385 122 361 144 q 408 64 408 99 q 385 7 408 31 q 325 -17 361 -16 q 267 7 289 -16 q 244 64 245 31 q 267 122 245 99 q 325 145 289 144 z "},"@":{"ha":1364,"x_min":94,"x_max":1267,"o":"m 1022 665 q 945 399 990 561 q 895 186 899 238 q 905 136 893 158 q 958 112 918 113 q 1124 211 1025 112 q 1234 512 1223 310 q 1109 821 1232 703 q 764 943 987 939 q 341 765 498 936 q 180 342 184 595 q 311 -1 178 145 q 739 -155 444 -147 q 948 -118 846 -154 q 1141 -17 1051 -81 l 1164 -41 q 980 -143 1090 -98 q 703 -192 870 -189 q 251 -24 406 -183 q 94 342 96 134 q 274 784 98 601 q 750 976 450 968 q 1137 844 1006 972 q 1267 512 1267 716 q 1178 223 1265 359 q 942 79 1091 87 q 833 122 864 81 q 800 223 803 163 q 722 127 772 170 q 595 81 673 84 q 452 143 500 83 q 403 298 403 202 q 497 549 406 431 q 739 675 589 667 q 839 635 805 673 q 884 543 873 596 l 917 665 l 1022 665 m 511 248 q 533 157 511 197 q 611 115 556 117 q 782 264 715 128 q 850 498 848 401 q 825 598 850 555 q 739 645 799 642 q 582 495 648 632 q 511 248 515 359 z "},"A":{"ha":1064,"x_min":-6,"x_max":1075,"o":"m 283 315 q 229 191 263 265 q 192 87 194 117 q 208 47 189 66 q 302 26 227 27 l 302 0 l -6 0 l -6 26 q 40 36 18 26 q 72 56 61 45 q 156 198 85 55 q 525 970 227 340 l 558 970 q 910 196 843 338 q 989 56 977 53 q 1031 30 1011 35 q 1075 26 1050 25 l 1075 0 l 677 0 l 677 26 q 748 35 712 24 q 786 84 783 45 q 749 194 783 121 q 694 315 715 268 l 283 315 m 309 368 l 672 368 l 494 773 l 309 368 z "},"B":{"ha":945,"x_min":33,"x_max":889,"o":"m 447 51 q 657 104 587 52 q 728 256 728 157 q 656 416 728 363 q 433 470 585 470 q 345 466 366 473 q 325 409 323 458 l 325 128 q 343 65 322 80 q 447 51 365 50 m 33 954 l 509 954 q 759 883 673 951 q 844 718 844 816 q 787 576 843 631 q 639 503 732 521 q 827 423 766 484 q 889 267 889 362 q 795 74 890 146 q 509 0 701 2 l 33 0 l 33 26 q 147 55 117 25 q 175 151 177 85 l 175 809 q 139 897 175 871 q 33 923 102 924 l 33 954 m 325 562 q 335 524 323 533 q 386 515 346 514 q 615 552 538 511 q 692 718 692 593 q 624 860 692 819 q 419 901 557 902 q 338 886 355 903 q 325 809 322 869 l 325 562 z "},"C":{"ha":981,"x_min":64,"x_max":970,"o":"m 567 976 q 749 948 696 972 q 850 920 802 924 q 882 935 871 921 q 895 967 892 948 l 920 967 l 947 659 l 920 659 q 821 834 895 749 q 595 926 747 920 q 311 779 398 917 q 225 484 224 642 q 311 181 224 319 q 595 34 398 43 q 798 87 713 36 q 945 220 883 139 l 970 193 q 801 41 895 99 q 550 -20 708 -17 q 199 115 330 -16 q 64 462 67 245 q 198 824 66 678 q 567 976 331 970 z "},"D":{"ha":1117,"x_min":33,"x_max":1050,"o":"m 509 0 l 33 0 l 33 26 q 152 59 126 25 q 175 165 178 92 l 175 801 q 149 898 177 869 q 33 926 121 926 l 33 954 l 517 954 q 922 815 793 948 q 1050 484 1051 682 q 896 129 1045 255 q 509 0 746 2 m 425 48 q 777 166 664 50 q 889 484 890 282 q 784 780 891 659 q 439 906 677 901 q 351 888 377 907 q 325 829 324 870 l 325 159 q 342 73 323 98 q 425 48 362 47 z "},"E":{"ha":964,"x_min":31,"x_max":942,"o":"m 31 926 l 31 954 l 847 954 l 861 745 l 833 745 q 784 861 821 822 q 644 901 747 901 l 425 901 q 335 888 351 904 q 322 801 319 873 l 322 581 q 331 537 321 549 q 380 526 340 525 l 595 526 q 715 558 686 526 q 747 662 744 591 l 772 662 l 772 331 l 747 331 q 718 433 747 395 q 595 473 689 471 l 380 473 q 329 463 338 474 q 322 409 320 451 l 322 145 q 340 68 318 85 q 456 54 361 52 l 636 54 q 808 87 747 50 q 917 239 868 124 l 942 231 l 869 0 l 31 0 l 31 26 q 137 47 101 25 q 172 123 172 70 l 172 826 q 140 902 173 878 q 31 926 107 926 z "},"F":{"ha":859,"x_min":33,"x_max":839,"o":"m 703 656 l 703 320 l 677 320 q 649 430 674 393 q 522 467 624 467 l 370 467 q 334 457 343 468 q 325 420 324 447 l 325 137 q 361 51 324 77 q 478 26 397 25 l 478 0 l 33 0 l 33 26 q 145 53 113 26 q 175 137 176 81 l 175 798 q 148 897 177 868 q 33 926 119 926 l 33 954 l 822 954 l 839 731 l 811 731 q 752 863 792 824 q 603 901 711 902 l 419 901 q 340 882 357 901 q 325 812 323 863 l 325 570 q 333 530 323 540 q 375 520 342 519 l 519 520 q 649 554 617 520 q 677 656 680 588 l 703 656 z "},"G":{"ha":1120,"x_min":64,"x_max":1095,"o":"m 828 387 q 799 466 829 444 q 684 487 768 488 l 684 515 l 1095 515 l 1095 487 q 1002 465 1027 488 q 978 389 977 443 l 978 95 q 815 17 915 52 q 586 -20 715 -17 q 199 122 333 -14 q 64 467 65 258 q 209 832 67 692 q 591 976 351 972 q 771 947 716 972 q 864 918 827 921 q 901 932 888 918 q 917 967 913 946 l 939 967 l 956 675 l 925 675 q 826 841 898 764 q 616 923 755 918 q 312 780 402 915 q 225 475 222 644 q 319 167 225 298 q 603 28 413 35 q 733 50 676 29 q 828 101 790 71 l 828 387 z "},"H":{"ha":1133,"x_min":33,"x_max":1105,"o":"m 814 378 q 804 451 817 438 q 730 462 792 465 l 414 462 q 337 451 351 465 q 325 378 322 438 l 325 159 q 349 59 322 92 q 467 26 376 26 l 467 0 l 33 0 l 33 26 q 148 55 119 24 q 175 159 177 85 l 175 801 q 143 900 176 872 q 33 926 110 927 l 33 954 l 467 954 l 467 926 q 354 897 385 926 q 325 801 323 867 l 325 595 q 336 525 322 537 q 414 515 350 512 l 725 515 q 803 526 789 512 q 814 601 817 539 l 814 801 q 787 895 816 863 q 672 926 758 926 l 672 954 l 1105 954 l 1105 926 q 994 898 1025 926 q 964 801 962 869 l 964 159 q 989 58 961 90 q 1105 26 1017 26 l 1105 0 l 672 0 l 672 26 q 791 59 765 26 q 814 159 817 92 l 814 378 z "},"I":{"ha":528,"x_min":47,"x_max":481,"o":"m 481 926 q 365 891 393 926 q 339 787 336 857 l 339 142 q 369 55 338 84 q 481 26 401 26 l 481 0 l 47 0 l 47 26 q 161 54 131 26 q 189 142 191 82 l 189 787 q 168 888 193 852 q 47 926 144 925 l 47 954 l 481 954 l 481 926 z "},"J":{"ha":608,"x_min":14,"x_max":575,"o":"m 222 31 q 273 58 261 33 q 283 109 285 83 l 283 795 q 261 890 287 854 q 139 926 235 925 l 139 954 l 575 954 l 575 926 q 463 894 493 926 q 433 795 432 862 l 433 237 q 368 53 433 122 q 186 -20 304 -17 q 59 16 104 -18 q 14 101 14 50 q 30 143 14 127 q 78 159 46 159 q 155 95 143 151 q 222 31 168 39 z "},"K":{"ha":1022,"x_min":33,"x_max":1053,"o":"m 325 787 l 325 495 q 350 503 336 495 q 378 523 365 511 q 543 690 479 626 q 641 790 607 753 q 687 846 675 826 q 700 881 700 866 q 679 912 701 900 q 603 926 658 925 l 603 954 l 972 954 l 972 926 q 865 903 914 927 q 762 832 815 880 q 640 711 708 784 q 475 540 571 638 q 720 290 624 389 q 876 132 817 190 q 976 50 936 75 q 1053 26 1015 26 l 1053 0 l 608 0 l 608 26 q 674 31 635 24 q 717 67 713 37 q 704 98 717 81 q 659 147 692 115 q 566 240 627 180 q 411 401 505 300 q 364 445 380 433 q 325 456 348 457 l 325 151 q 350 56 323 86 q 458 26 377 26 l 458 0 l 33 0 l 33 26 q 148 56 119 26 q 175 151 177 86 l 175 787 q 149 891 177 857 q 33 926 121 926 l 33 954 l 464 954 l 464 926 q 352 891 380 926 q 325 787 323 857 z "},"L":{"ha":889,"x_min":33,"x_max":903,"o":"m 467 926 q 354 895 385 926 q 325 801 323 863 l 325 128 q 340 71 323 91 q 416 51 358 51 l 570 51 q 752 90 682 48 q 875 245 823 131 l 903 245 l 825 0 l 33 0 l 33 26 q 151 57 124 26 q 175 153 178 89 l 175 801 q 151 898 178 869 q 33 926 124 926 l 33 954 l 467 954 l 467 926 z "},"M":{"ha":1308,"x_min":45,"x_max":1270,"o":"m 45 926 l 45 954 l 325 954 l 661 220 l 997 954 l 1270 954 l 1270 926 q 1165 898 1194 926 q 1139 801 1137 869 l 1139 151 q 1165 55 1137 85 q 1270 26 1194 25 l 1270 0 l 864 0 l 864 26 q 972 58 947 26 q 994 153 997 91 l 994 795 l 631 0 l 603 0 l 239 798 l 239 168 q 260 63 235 100 q 375 26 285 26 l 375 0 l 45 0 l 45 26 q 150 63 122 26 q 175 168 177 100 l 175 817 q 146 899 176 871 q 45 926 117 926 z "},"N":{"ha":1064,"x_min":25,"x_max":1047,"o":"m 842 814 q 811 897 842 869 q 703 926 779 926 l 703 954 l 1047 954 l 1047 926 q 939 900 972 926 q 905 814 905 874 l 905 0 l 878 0 l 231 770 l 231 142 q 265 51 231 77 q 370 26 299 24 l 370 0 l 25 0 l 25 26 q 138 54 107 26 q 167 142 168 82 l 167 829 q 106 898 140 871 q 25 926 73 925 l 25 954 l 272 954 l 842 270 l 842 814 z "},"O":{"ha":1120,"x_min":64,"x_max":1053,"o":"m 553 -20 q 189 129 313 -10 q 64 434 64 267 l 64 520 q 184 822 63 678 q 558 976 305 966 q 930 825 808 966 q 1053 520 1053 684 l 1053 456 q 929 129 1053 270 q 553 -20 805 -12 m 558 926 q 293 765 364 913 q 225 473 221 616 q 296 182 222 325 q 558 28 370 39 q 817 175 740 37 q 892 473 894 312 q 822 770 895 625 q 558 926 749 915 z "},"P":{"ha":836,"x_min":36,"x_max":789,"o":"m 478 954 q 725 875 658 949 q 789 706 792 800 q 661 482 779 532 q 444 437 544 431 l 353 437 q 328 430 334 437 q 322 406 321 422 l 322 214 q 340 70 317 115 q 464 26 362 25 l 464 0 l 36 0 l 36 26 q 155 66 134 24 q 172 214 176 108 l 172 820 q 143 905 174 883 q 36 926 112 927 l 36 954 l 478 954 m 403 906 q 342 892 361 907 q 322 837 322 878 l 322 531 q 337 492 322 501 q 386 484 353 484 q 547 522 464 480 q 636 701 629 564 q 578 854 636 803 q 403 906 519 906 z "},"Q":{"ha":1120,"x_min":64,"x_max":1053,"o":"m 892 487 q 816 781 894 646 q 558 926 738 917 q 303 785 382 918 q 225 481 224 651 q 306 166 224 298 q 561 28 387 35 q 816 172 739 36 q 892 487 894 309 m 428 -5 q 150 175 237 45 q 64 456 62 304 l 64 492 q 192 832 65 694 q 558 976 319 970 q 935 822 815 967 q 1053 500 1054 676 l 1053 462 q 967 176 1052 291 q 725 3 882 60 q 710 -10 710 -1 q 722 -31 709 -20 q 858 -80 787 -64 q 1022 -103 928 -95 l 1022 -127 q 970 -131 999 -130 q 908 -134 942 -133 q 649 -99 766 -132 q 428 -5 533 -66 z "},"R":{"ha":1064,"x_min":50,"x_max":1042,"o":"m 50 26 q 171 60 144 26 q 195 168 198 94 l 195 812 q 164 901 196 876 q 50 926 132 926 l 50 954 l 545 954 q 781 888 698 952 q 864 712 863 824 q 807 553 865 616 q 625 462 749 491 q 823 220 746 308 q 943 92 900 132 q 1008 40 986 52 q 1042 26 1029 28 l 1042 0 l 825 0 q 641 214 744 90 q 464 434 537 339 l 386 434 q 347 425 356 435 q 339 387 338 415 l 339 168 q 365 59 336 93 q 489 26 394 25 l 489 0 l 50 0 l 50 26 m 339 520 q 350 489 338 498 q 408 481 362 481 q 636 541 564 482 q 708 706 709 600 q 649 847 710 793 q 441 903 588 902 q 363 895 388 905 q 339 848 339 884 l 339 520 z "},"S":{"ha":758,"x_min":53,"x_max":692,"o":"m 692 262 q 612 56 691 130 q 386 -20 533 -18 q 246 -1 292 -17 q 175 18 200 16 q 144 7 156 17 q 125 -20 132 -3 l 106 -20 l 53 287 l 81 287 q 193 107 115 184 q 372 26 271 30 q 504 82 458 29 q 550 198 549 134 q 476 339 546 284 q 313 443 406 394 q 151 556 221 491 q 78 728 81 622 q 153 903 79 833 q 364 976 227 973 q 484 954 439 973 q 555 931 528 934 q 588 947 578 932 q 597 976 597 962 q 609 976 601 976 q 619 976 618 976 l 650 687 l 623 687 q 534 848 596 773 q 367 928 473 924 q 247 882 288 926 q 205 784 205 839 q 280 653 208 707 q 447 549 353 600 q 615 431 542 498 q 692 262 688 365 z "},"T":{"ha":911,"x_min":20,"x_max":897,"o":"m 533 165 q 558 58 530 90 q 681 26 586 25 l 681 0 l 236 0 l 236 26 q 359 58 331 25 q 383 165 387 90 l 383 840 q 370 893 385 884 q 302 901 355 903 q 113 868 165 905 q 47 709 62 832 l 20 709 l 20 954 l 897 954 l 897 709 l 869 709 q 803 868 854 832 q 614 901 751 905 q 547 893 562 903 q 533 840 532 884 l 533 165 z "},"U":{"ha":1136,"x_min":31,"x_max":1097,"o":"m 764 954 l 1097 954 l 1097 926 q 999 888 1027 924 q 972 795 971 851 l 972 345 q 869 76 972 176 q 572 -28 767 -24 q 275 58 378 -26 q 172 300 173 143 l 172 748 q 155 873 177 823 q 31 926 132 924 l 31 954 l 456 954 l 456 926 q 340 882 361 924 q 322 770 318 840 l 322 337 q 384 124 320 210 q 600 34 448 37 q 827 125 749 37 q 905 342 905 212 l 905 789 q 877 891 907 857 q 764 926 847 926 l 764 954 z "},"V":{"ha":1059,"x_min":20,"x_max":1047,"o":"m 525 -20 q 309 477 390 288 q 181 764 228 666 q 98 895 134 862 q 20 926 62 928 l 20 954 l 422 954 l 422 926 q 338 912 368 926 q 309 870 309 899 q 343 763 300 865 q 589 214 387 661 q 751 574 693 445 q 835 762 810 703 q 866 841 860 821 q 872 870 872 861 q 827 919 868 910 q 761 926 786 928 l 761 954 l 1047 954 l 1047 926 q 983 897 1013 928 q 908 770 954 866 q 780 485 863 674 q 558 -20 697 295 l 525 -20 z "},"W":{"ha":1364,"x_min":14,"x_max":1350,"o":"m 1197 870 q 1177 907 1198 893 q 1105 926 1157 922 l 1105 954 l 1350 954 l 1350 926 q 1300 903 1321 924 q 1245 796 1279 881 q 1144 517 1211 711 q 958 -20 1078 324 l 930 -20 l 700 587 l 478 -20 l 453 -20 q 261 489 329 299 q 156 772 193 678 q 90 896 119 866 q 14 926 60 926 l 14 954 l 378 954 l 378 926 q 302 909 325 922 q 281 878 280 897 q 306 782 281 858 q 370 605 332 706 q 445 409 408 505 q 505 251 482 313 l 667 675 q 590 870 622 818 q 478 926 558 923 l 478 954 l 867 954 l 867 926 q 788 912 817 921 q 758 873 759 903 q 784 777 758 852 q 848 603 810 702 q 923 408 886 503 q 983 251 960 313 q 1039 404 1004 311 q 1110 594 1074 496 q 1171 767 1146 691 q 1197 870 1196 844 z "},"X":{"ha":1064,"x_min":17,"x_max":1055,"o":"m 36 926 l 36 954 l 467 954 l 467 926 q 379 913 400 925 q 361 884 359 901 q 365 860 359 873 q 390 820 371 846 q 451 740 410 793 q 561 589 492 686 q 743 805 699 745 q 783 887 787 865 q 762 913 785 902 q 681 926 740 925 l 681 954 l 1031 954 l 1031 926 q 951 917 983 927 q 881 869 920 906 q 775 753 842 833 q 595 540 708 674 q 922 96 855 174 q 1055 26 989 19 l 1055 0 l 616 0 l 616 26 q 710 39 686 26 q 733 73 734 52 q 719 114 733 87 q 675 183 704 141 q 603 284 646 224 q 503 423 559 344 q 268 143 311 203 q 233 70 225 83 q 258 36 233 47 q 339 26 283 26 l 339 0 l 17 0 l 17 26 q 73 35 47 24 q 139 86 98 45 q 257 219 180 127 q 467 470 334 311 q 277 731 346 637 q 170 867 208 825 q 103 919 131 909 q 36 926 75 928 z "},"Y":{"ha":1061,"x_min":22,"x_max":1039,"o":"m 847 881 q 818 912 846 899 q 742 926 789 925 l 742 954 l 1039 954 l 1039 926 q 920 856 981 932 q 633 426 858 781 l 633 140 q 665 51 632 76 q 775 26 697 25 l 775 0 l 342 0 l 342 26 q 453 54 422 26 q 484 142 485 82 l 484 409 q 278 699 351 594 q 166 850 205 804 q 98 910 127 897 q 22 926 68 923 l 22 954 l 461 954 l 461 926 q 370 908 393 921 q 350 878 348 895 q 380 818 350 865 q 452 709 410 770 q 537 589 494 648 q 606 492 579 531 q 669 591 631 531 q 749 713 708 651 q 818 822 790 776 q 847 881 846 869 z "},"Z":{"ha":986,"x_min":31,"x_max":964,"o":"m 689 895 l 355 895 q 186 854 236 897 q 117 703 136 812 l 92 703 l 109 954 l 917 954 l 256 56 l 616 56 q 843 103 780 55 q 936 264 906 151 l 964 264 l 917 0 l 31 0 l 689 895 z "},"[":{"ha":453,"x_min":109,"x_max":403,"o":"m 403 954 q 245 930 273 957 q 222 812 217 904 l 222 -158 q 245 -266 217 -240 q 403 -289 273 -291 l 403 -328 l 109 -328 l 109 992 l 403 992 l 403 954 z "},"\\":{"ha":375,"x_min":-12,"x_max":386,"o":"m 328 -127 l -12 976 l 45 976 l 386 -127 l 328 -127 z "},"]":{"ha":453,"x_min":47,"x_max":342,"o":"m 228 812 q 205 930 233 904 q 47 954 177 957 l 47 992 l 342 992 l 342 -330 l 47 -330 l 47 -292 q 205 -269 177 -294 q 228 -161 233 -243 l 228 812 z "},"^":{"ha":1383,"x_min":278,"x_max":1100,"o":"m 278 604 l 625 981 l 753 981 l 1100 604 l 1034 604 l 689 887 l 342 604 l 278 604 z "},"_":{"ha":692,"x_min":0,"x_max":689,"o":"m 0 -233 l 689 -233 l 689 -328 l 0 -328 l 0 -233 z "},"‘":{"ha":345,"x_min":58,"x_max":258,"o":"m 131 745 q 158 747 145 745 q 180 748 170 748 q 228 730 208 747 q 248 687 247 713 q 230 631 248 654 q 164 606 211 608 q 82 645 106 608 q 58 726 58 682 q 99 859 57 795 q 241 976 141 923 l 258 956 q 118 810 139 872 q 131 745 98 748 z "},"a":{"ha":681,"x_min":64,"x_max":661,"o":"m 180 176 q 212 87 181 124 q 294 48 242 50 q 386 79 343 51 q 431 132 428 108 l 431 376 q 252 293 322 339 q 180 176 182 247 m 89 520 q 162 622 92 581 q 322 665 231 663 q 488 615 429 663 q 547 498 547 568 l 547 106 q 558 73 547 87 q 591 59 568 60 q 619 68 604 60 q 644 87 633 76 l 661 70 q 607 13 647 41 q 519 -17 567 -14 q 458 13 481 -15 q 433 73 434 40 q 332 9 384 33 q 220 -17 279 -16 q 101 31 139 -14 q 64 145 63 77 q 155 293 64 237 q 431 417 245 350 l 431 515 q 406 599 431 566 q 317 634 380 633 q 243 611 275 633 q 208 559 210 589 l 216 520 q 201 472 216 492 q 150 451 185 452 q 106 471 123 452 q 89 520 90 490 z "},"b":{"ha":736,"x_min":0,"x_max":677,"o":"m 0 903 l 0 928 q 105 953 58 939 q 211 992 153 968 l 211 565 q 307 634 252 606 q 433 665 361 663 q 617 572 556 660 q 677 368 677 484 q 585 108 676 218 q 328 -8 494 -2 q 196 14 255 -7 q 92 64 137 35 l 92 817 q 75 882 93 861 q 0 903 57 903 m 211 106 q 251 60 212 89 q 361 28 290 31 q 477 77 404 23 q 558 312 550 130 q 503 504 557 427 q 347 584 448 581 q 253 553 294 581 q 211 500 213 524 l 211 106 z "},"c":{"ha":608,"x_min":39,"x_max":595,"o":"m 311 -20 q 112 82 183 -14 q 39 300 40 178 q 120 552 39 446 q 358 665 201 659 q 510 623 454 663 q 567 523 566 583 q 551 476 567 495 q 500 456 535 457 q 428 538 428 467 q 334 620 428 610 q 198 537 243 615 q 153 365 153 459 q 201 179 151 269 q 367 84 251 90 q 490 124 442 85 q 572 220 538 163 l 595 206 q 489 56 559 127 q 311 -20 419 -14 z "},"d":{"ha":753,"x_min":53,"x_max":722,"o":"m 519 -17 l 519 73 q 434 11 486 35 q 317 -14 382 -12 q 117 84 182 -8 q 53 298 52 176 q 132 554 54 448 q 358 665 210 660 q 452 647 414 665 q 519 598 490 629 l 519 837 q 510 881 524 858 q 419 906 496 904 l 419 926 q 531 954 481 940 q 639 992 581 968 l 639 128 q 654 81 637 92 q 720 70 671 69 q 721 61 720 69 q 720 48 722 53 q 619 17 663 32 q 519 -17 574 2 m 519 465 q 480 568 519 516 q 361 623 440 619 q 220 549 267 620 q 172 381 172 479 q 219 163 171 261 q 383 59 268 65 q 466 78 430 60 q 519 117 502 96 l 519 465 z "},"e":{"ha":684,"x_min":50,"x_max":636,"o":"m 328 -17 q 117 84 184 -12 q 50 320 50 180 q 129 560 52 460 q 347 665 207 660 q 539 582 478 660 q 600 409 601 503 l 153 409 q 208 183 152 276 q 383 87 263 91 q 524 135 470 90 q 611 239 578 181 l 636 229 q 532 70 604 150 q 328 -17 459 -10 m 158 448 l 441 448 q 460 457 456 448 q 464 481 465 467 q 437 567 467 515 q 319 623 408 618 q 207 569 253 621 q 158 448 160 517 z "},"f":{"ha":456,"x_min":28,"x_max":505,"o":"m 28 645 l 144 645 l 144 723 q 204 902 145 827 q 375 981 262 978 q 472 955 439 981 q 505 884 505 928 q 494 849 505 863 q 458 834 483 835 q 395 888 400 841 q 334 943 389 936 q 276 902 289 940 q 264 823 262 863 l 264 645 l 431 645 l 431 598 l 264 598 l 264 120 q 299 45 263 67 q 416 23 334 22 l 416 0 l 28 0 l 28 23 q 123 45 99 22 q 144 120 146 67 l 144 598 l 28 598 l 28 645 z "},"g":{"ha":675,"x_min":28,"x_max":647,"o":"m 309 629 q 219 575 238 625 q 203 467 200 525 q 231 321 201 398 q 334 237 260 243 q 421 286 402 239 q 439 387 441 332 q 409 544 439 466 q 309 629 378 623 m 83 417 q 143 587 83 513 q 319 665 203 661 q 410 651 373 665 q 478 614 448 637 l 642 614 l 642 559 l 525 559 q 549 502 540 532 q 558 434 558 471 q 491 268 557 336 q 309 198 425 201 q 267 200 290 198 q 225 209 245 203 q 194 173 208 192 q 180 140 181 155 q 253 86 183 92 q 413 81 322 80 q 573 54 504 81 q 647 -61 643 27 q 533 -253 643 -181 q 261 -328 424 -325 q 92 -292 155 -328 q 28 -180 29 -256 q 65 -86 30 -130 q 142 -11 100 -42 q 99 21 113 3 q 86 67 86 39 q 119 150 87 111 q 195 220 151 189 q 109 302 135 255 q 83 417 83 349 m 172 -22 q 129 -74 146 -47 q 111 -125 112 -101 q 170 -221 112 -187 q 334 -256 229 -254 q 508 -212 433 -254 q 586 -106 582 -171 q 548 -51 585 -66 q 450 -33 511 -36 q 316 -29 389 -29 q 172 -22 244 -29 z "},"h":{"ha":758,"x_min":31,"x_max":725,"o":"m 250 123 q 270 43 250 66 q 345 20 291 20 l 345 0 l 31 0 l 31 20 q 109 43 86 20 q 131 123 132 66 l 131 837 q 125 879 136 856 q 36 903 115 901 l 36 926 q 151 955 92 935 q 250 992 209 975 l 250 556 q 342 628 288 594 q 467 665 397 663 q 597 609 557 663 q 636 475 637 555 l 636 120 q 652 44 635 68 q 725 20 670 20 l 725 0 l 416 0 l 416 20 q 498 45 477 20 q 517 120 518 71 l 517 439 q 493 537 518 492 q 400 584 467 581 q 316 562 351 583 q 250 509 281 541 l 250 123 z "},"i":{"ha":375,"x_min":33,"x_max":345,"o":"m 345 20 l 345 0 l 33 0 l 33 20 q 112 43 89 20 q 134 112 134 66 l 134 503 q 121 561 136 546 q 39 576 105 576 l 39 598 q 155 628 98 609 q 253 665 212 647 l 253 112 q 271 43 252 66 q 345 20 291 20 m 125 915 q 143 966 125 941 q 200 992 161 990 q 257 967 239 991 q 275 915 275 943 q 257 862 275 886 q 200 837 239 838 q 143 863 161 839 q 125 915 125 888 z "},"j":{"ha":370,"x_min":-67,"x_max":264,"o":"m 127 456 q 113 536 130 512 q 22 559 96 559 l 22 581 q 143 620 85 598 q 248 665 201 642 l 248 -31 q 203 -224 249 -129 q 45 -328 157 -320 q -36 -301 -6 -326 q -67 -236 -66 -276 q -52 -201 -66 -216 q -12 -186 -37 -186 q 40 -234 33 -191 q 83 -283 47 -277 q 119 -255 110 -281 q 127 -197 128 -229 l 127 456 m 111 915 q 133 969 112 947 q 189 992 153 991 q 244 968 224 991 q 264 918 264 946 q 241 865 262 888 q 189 840 219 841 q 136 861 159 840 q 111 915 113 882 z "},"k":{"ha":720,"x_min":20,"x_max":717,"o":"m 464 587 q 452 612 465 602 q 392 623 438 623 l 392 645 l 684 645 l 684 623 q 563 588 628 629 q 358 401 497 548 q 615 75 555 140 q 717 20 676 10 l 717 0 l 414 0 l 414 20 q 461 26 444 20 q 478 48 478 32 q 412 150 474 74 q 275 315 350 226 q 254 327 262 329 q 244 315 245 326 l 244 115 q 264 41 243 63 q 342 20 285 20 l 342 0 l 20 0 l 20 20 q 106 41 83 20 q 127 115 129 63 l 127 820 q 110 888 130 871 q 28 903 91 905 l 28 926 q 144 957 90 941 q 244 992 199 973 l 244 384 q 254 372 244 373 q 281 387 264 371 q 424 526 383 484 q 464 587 465 567 z "},"l":{"ha":378,"x_min":28,"x_max":342,"o":"m 248 117 q 264 45 246 69 q 342 20 283 20 l 342 0 l 28 0 l 28 20 q 107 43 85 20 q 127 117 129 66 l 127 823 q 110 891 129 877 q 36 903 91 905 l 36 926 q 148 955 98 939 q 248 992 198 971 l 248 117 z "},"m":{"ha":1128,"x_min":25,"x_max":1095,"o":"m 345 0 l 25 0 l 25 20 q 103 41 80 20 q 125 117 125 62 l 125 479 q 111 556 127 536 q 28 576 94 577 l 28 598 q 142 628 79 607 q 244 670 206 648 l 244 553 q 346 630 292 597 q 456 665 399 663 q 557 633 518 664 q 614 553 595 602 q 717 628 660 593 q 842 665 774 663 q 969 609 932 663 q 1006 475 1007 555 l 1006 117 q 1019 41 1004 62 q 1095 20 1034 20 l 1095 0 l 783 0 l 783 20 q 869 40 850 19 q 886 117 888 60 l 886 467 q 862 544 888 511 q 770 578 836 576 q 690 557 726 578 q 623 503 654 537 l 623 117 q 638 43 621 66 q 722 20 656 20 l 722 0 l 406 0 l 406 20 q 487 44 470 20 q 503 117 505 68 l 503 467 q 478 545 503 513 q 395 578 452 577 q 309 553 349 577 q 244 500 270 530 l 244 117 q 263 41 243 62 q 345 20 283 20 l 345 0 z "},"n":{"ha":758,"x_min":28,"x_max":725,"o":"m 28 20 q 106 43 81 20 q 131 117 131 66 l 131 509 q 112 565 132 553 q 31 576 92 577 l 31 598 q 145 629 83 608 q 250 670 208 650 l 250 562 q 351 634 294 604 q 472 665 407 663 q 603 602 568 661 q 636 473 638 543 l 636 117 q 652 47 635 73 q 725 20 670 21 l 725 0 l 416 0 l 416 20 q 498 45 477 20 q 517 117 518 69 l 517 445 q 490 545 517 507 q 400 584 462 583 q 311 561 348 583 q 250 509 275 539 l 250 117 q 269 43 249 66 q 345 20 289 20 l 345 0 l 28 0 l 28 20 z "},"o":{"ha":755,"x_min":45,"x_max":697,"o":"m 383 665 q 617 563 538 660 q 697 337 696 467 q 621 95 699 200 q 364 -17 543 -11 q 125 84 205 -12 q 45 323 45 180 q 133 563 45 465 q 383 665 220 661 m 172 370 q 217 148 170 264 q 383 20 264 31 q 537 102 500 24 q 570 284 573 180 q 522 502 571 387 q 355 626 473 616 q 213 544 255 621 q 172 370 171 467 z "},"p":{"ha":755,"x_min":14,"x_max":703,"o":"m 233 667 l 233 548 q 327 626 277 593 q 439 659 376 658 q 646 558 587 654 q 703 345 705 463 q 627 98 703 206 q 386 -17 550 -10 q 302 -4 343 -16 q 233 31 261 8 l 233 -200 q 257 -283 233 -257 q 342 -309 282 -309 l 342 -330 l 14 -330 l 14 -309 q 94 -283 73 -309 q 114 -200 115 -257 l 114 467 q 98 541 116 521 q 20 559 80 560 l 20 581 q 132 621 81 602 q 233 667 182 641 m 233 492 l 233 128 q 277 64 235 102 q 383 23 319 26 q 538 112 494 28 q 581 304 583 197 q 538 482 582 397 q 395 573 495 567 q 304 550 341 572 q 233 492 268 527 z "},"q":{"ha":750,"x_min":53,"x_max":722,"o":"m 514 507 q 471 590 512 556 q 375 626 431 625 q 220 535 266 621 q 175 348 174 449 q 224 149 174 232 q 383 62 273 66 q 476 97 439 65 q 514 151 513 129 l 514 507 m 514 81 q 419 15 473 44 q 300 -17 366 -15 q 111 81 170 -11 q 53 284 52 172 q 133 550 54 439 q 367 665 212 660 q 479 644 437 662 q 536 623 520 626 q 586 644 552 625 q 633 670 620 662 l 633 -203 q 650 -281 632 -254 q 722 -309 667 -308 l 722 -330 l 400 -330 l 400 -309 q 493 -283 469 -309 q 514 -203 516 -258 l 514 81 z "},"r":{"ha":530,"x_min":31,"x_max":509,"o":"m 33 598 q 152 634 88 613 q 258 670 216 655 l 258 540 q 339 626 296 589 q 436 665 382 663 q 491 643 473 664 q 509 589 509 622 q 496 551 509 568 q 453 534 484 534 q 400 552 412 536 q 358 570 389 568 q 297 533 328 566 q 258 481 267 500 l 258 123 q 283 46 257 71 q 378 20 310 20 l 378 0 l 31 0 l 31 20 q 113 48 87 21 q 139 123 139 75 l 139 507 q 110 565 138 553 q 33 576 81 577 l 33 598 z "},"s":{"ha":528,"x_min":50,"x_max":486,"o":"m 375 640 q 394 645 385 640 q 408 665 402 650 l 428 665 l 439 467 l 414 467 q 362 583 400 536 q 250 631 324 629 q 174 604 203 630 q 144 540 145 578 q 197 449 146 484 q 314 382 248 413 q 432 303 380 351 q 486 173 484 255 q 428 37 484 88 q 283 -17 371 -15 q 173 -2 215 -14 q 114 12 131 9 q 93 6 102 12 q 83 -11 84 0 l 61 -11 l 53 214 l 75 214 q 145 75 100 133 q 269 15 191 18 q 358 45 325 16 q 392 123 391 74 q 337 216 389 180 q 219 283 286 252 q 102 361 153 315 q 50 487 52 408 q 99 611 50 560 q 244 665 149 663 q 331 652 297 663 q 375 640 364 641 z "},"t":{"ha":453,"x_min":28,"x_max":425,"o":"m 127 104 l 127 598 l 28 598 l 28 617 q 139 708 87 651 q 220 842 191 765 l 248 842 l 248 645 l 406 645 l 406 598 l 248 598 l 248 162 q 257 94 245 123 q 314 64 268 66 q 369 78 347 65 q 408 109 392 92 l 425 92 q 358 18 398 51 q 261 -17 317 -14 q 162 14 196 -16 q 127 104 127 43 z "},"u":{"ha":755,"x_min":17,"x_max":722,"o":"m 503 -22 l 503 84 q 404 13 458 41 q 286 -17 349 -15 q 149 44 184 -14 q 117 178 114 101 l 117 517 q 96 591 118 572 q 17 609 74 610 q 17 619 17 610 q 17 631 17 628 l 236 645 l 236 206 q 261 106 235 150 q 353 59 287 62 q 442 84 405 60 q 503 137 479 109 l 503 517 q 483 590 504 570 q 406 609 463 610 q 406 619 406 610 q 406 631 406 628 q 519 637 458 633 q 623 645 581 641 l 623 137 q 639 81 621 93 q 722 70 658 68 l 722 45 q 608 17 664 35 q 503 -22 553 0 z "},"v":{"ha":625,"x_min":-28,"x_max":623,"o":"m 292 -17 q 141 334 196 205 q 58 526 86 463 q 11 608 29 589 q -28 623 -7 626 l -28 645 l 261 645 l 261 623 q 186 608 201 623 q 175 573 172 593 q 180 535 174 557 q 204 471 187 513 q 252 356 221 429 q 334 168 283 284 q 413 360 382 286 q 462 477 444 434 q 487 544 479 520 q 494 581 494 568 q 480 611 496 599 q 416 623 464 623 l 416 645 l 623 645 l 623 623 q 584 610 600 626 q 539 533 567 594 q 459 342 511 473 q 314 -17 407 212 l 292 -17 z "},"w":{"ha":936,"x_min":-31,"x_max":925,"o":"m 650 -17 l 625 -17 l 461 387 l 286 -17 l 261 -17 q 126 337 174 208 q 53 528 78 467 q 10 606 28 589 q -31 620 -7 623 l -31 645 l 222 645 l 222 623 q 171 607 179 622 q 164 578 162 593 q 176 525 164 562 q 208 436 187 488 q 255 318 228 384 q 314 176 282 252 l 431 454 q 366 602 391 576 q 302 623 340 629 l 302 645 l 606 645 l 606 623 q 534 608 547 623 q 522 573 520 593 q 539 508 522 555 q 579 401 555 460 q 627 284 603 341 q 667 190 652 227 q 754 411 705 277 q 808 581 804 545 q 802 611 812 599 q 733 623 793 623 l 733 645 l 925 645 l 925 620 q 897 611 911 623 q 859 543 884 600 q 784 354 833 487 q 650 -17 734 222 z "},"x":{"ha":611,"x_min":-20,"x_max":619,"o":"m 350 373 q 546 70 500 128 q 619 20 591 11 l 619 0 l 319 0 l 319 20 q 384 30 368 20 q 397 56 399 39 q 350 155 393 88 q 275 267 307 222 q 194 157 243 223 q 139 54 144 91 q 155 28 139 37 q 203 20 172 20 l 203 0 l -20 0 l -20 20 q 21 28 3 20 q 64 65 39 37 q 132 153 89 94 q 250 315 175 213 q 145 483 184 420 q 80 575 106 545 q 35 615 54 605 q -9 623 16 625 l -9 645 l 297 645 l 297 623 q 252 618 276 624 q 225 589 227 612 q 263 506 229 559 q 322 417 298 452 q 385 499 349 448 q 425 581 422 551 q 413 611 427 599 q 355 623 400 623 l 355 645 l 608 645 l 608 623 q 499 570 547 625 q 350 373 451 515 z "},"y":{"ha":616,"x_min":-28,"x_max":614,"o":"m 572 606 q 506 462 550 581 q 409 188 463 342 q 303 -96 355 34 q 208 -272 250 -227 q 138 -316 174 -304 q 78 -328 102 -328 q 17 -306 37 -326 q -3 -253 -3 -286 q 12 -212 -3 -229 q 56 -195 26 -195 q 106 -205 91 -195 q 147 -216 121 -214 q 210 -177 182 -219 q 289 -11 237 -134 q 134 348 191 218 q 47 538 77 479 q 3 611 18 597 q -28 623 -13 626 l -28 645 l 261 645 l 261 623 q 196 610 211 623 q 183 581 182 597 q 201 513 183 565 q 247 392 220 460 q 300 258 273 323 q 345 151 326 194 q 429 389 378 243 q 484 581 479 535 q 470 611 485 599 q 408 623 455 623 l 408 645 l 614 645 l 614 623 q 591 620 600 623 q 572 606 582 616 z "},"z":{"ha":603,"x_min":17,"x_max":575,"o":"m 378 51 q 494 85 456 51 q 542 190 532 119 l 564 190 q 556 95 559 155 q 547 0 553 35 l 17 0 l 17 28 l 411 601 l 222 601 q 118 567 149 600 q 75 470 87 533 l 53 470 l 64 645 l 575 645 l 575 637 l 167 51 l 378 51 z "},"{":{"ha":692,"x_min":119,"x_max":570,"o":"m 411 623 q 364 495 412 550 q 211 426 317 440 q 364 358 317 411 q 411 237 412 305 l 411 6 q 447 -93 410 -57 q 570 -131 484 -130 l 570 -164 q 370 -122 434 -165 q 306 26 305 -79 l 306 218 q 273 348 309 302 q 119 406 237 394 l 119 448 q 270 503 231 457 q 306 629 309 549 l 306 820 q 365 971 304 924 q 570 1017 425 1018 l 570 984 q 443 944 477 983 q 411 840 409 905 l 411 623 z "},"|":{"ha":692,"x_min":297,"x_max":395,"o":"m 297 1050 l 395 1050 l 395 -328 l 297 -328 l 297 1050 z "},"}":{"ha":692,"x_min":119,"x_max":570,"o":"m 278 237 q 325 359 277 307 q 478 426 372 412 q 325 495 372 440 q 278 623 277 550 l 278 840 q 245 944 280 905 q 119 984 211 983 l 119 1017 q 325 971 264 1018 q 383 820 385 924 l 383 629 q 419 503 380 549 q 570 448 458 457 l 570 406 q 416 348 452 394 q 383 218 380 302 l 383 26 q 319 -122 384 -79 q 119 -164 254 -165 l 119 -131 q 243 -93 206 -130 q 278 6 279 -57 l 278 237 z "},"~":{"ha":1383,"x_min":283,"x_max":1100,"o":"m 283 715 q 367 833 311 787 q 517 881 422 880 q 612 869 562 881 q 712 841 663 857 q 810 812 762 825 q 900 798 857 800 q 993 822 949 798 q 1061 890 1037 846 l 1100 867 q 1018 756 1074 801 q 872 709 963 711 q 775 723 825 711 q 674 751 725 735 q 577 780 624 768 q 489 792 530 792 q 390 765 429 791 q 322 695 351 739 l 283 715 z "},"≈":{"ha":1153,"x_min":119,"x_max":1031,"o":"m 383 626 q 493 613 440 626 q 593 581 546 600 q 684 549 640 563 q 770 534 728 536 q 897 562 830 534 q 1031 640 964 589 l 1031 537 q 918 474 985 504 q 772 442 852 444 q 672 457 721 444 q 577 490 624 471 q 484 521 530 508 q 389 534 437 534 q 247 502 315 532 q 119 429 178 472 l 119 531 q 248 600 184 575 q 383 626 313 625 m 119 284 q 248 353 184 328 q 383 378 313 378 q 493 365 440 378 q 593 334 546 352 q 684 302 640 316 q 770 287 728 288 q 897 314 830 287 q 1031 393 964 342 l 1031 290 q 918 227 985 256 q 772 195 852 197 q 672 211 721 197 q 577 242 624 224 q 484 274 530 260 q 389 287 437 287 q 247 255 315 286 q 119 181 178 224 l 119 284 z "},"√":{"ha":880,"x_min":41,"x_max":878,"o":"m 231 654 l 403 170 l 753 1118 l 878 1118 l 878 1057 l 800 1057 l 400 -28 l 358 -28 l 142 565 l 58 537 l 41 589 l 231 654 z "},"²":{"ha":456,"x_min":25,"x_max":441,"o":"m 192 906 q 98 877 138 905 q 45 798 58 848 l 25 801 q 97 922 47 880 q 231 964 146 964 q 354 920 314 962 q 395 817 395 878 q 360 715 393 766 q 281 617 328 665 q 188 526 235 569 q 109 445 140 483 l 302 445 q 380 460 351 445 q 425 509 409 476 l 441 503 l 392 381 l 25 381 l 25 393 q 95 467 47 422 q 193 564 142 512 q 280 669 244 616 q 319 768 317 722 q 286 868 319 831 q 192 906 252 905 z "},"³":{"ha":456,"x_min":25,"x_max":400,"o":"m 200 401 q 289 435 247 401 q 334 540 331 469 q 292 628 336 591 q 136 667 249 664 l 136 682 q 261 734 227 691 q 294 817 296 777 q 261 884 292 861 q 192 906 231 906 q 107 881 145 905 q 47 817 69 857 l 31 829 q 98 920 52 878 q 225 964 144 962 q 332 927 298 962 q 367 850 367 892 q 343 786 367 817 q 278 723 320 754 q 369 672 338 709 q 400 568 400 635 q 337 438 400 499 q 147 373 274 377 q 54 389 83 374 q 25 426 24 404 q 33 451 25 443 q 58 459 40 459 q 134 430 101 456 q 200 401 168 404 z "},"ı":{"ha":375,"x_min":33,"x_max":345,"o":"m 253 665 l 253 106 q 264 47 250 72 q 345 20 279 23 l 345 0 l 33 0 l 33 20 q 111 40 87 23 q 134 106 134 58 l 134 523 q 116 566 133 555 q 72 576 98 576 l 41 576 l 41 598 q 152 626 92 606 q 253 665 211 646 z "},"®":{"ha":1136,"x_min":89,"x_max":1047,"o":"m 761 178 q 654 317 638 196 q 519 456 671 439 l 497 456 l 497 279 q 515 238 496 255 q 578 220 533 221 l 578 190 l 317 190 l 317 220 q 385 240 368 221 q 400 287 401 259 l 400 631 q 379 690 400 674 q 317 706 359 707 l 317 734 l 608 734 q 742 698 688 733 q 798 604 795 663 q 736 506 794 538 q 603 465 679 474 q 750 325 745 418 q 794 220 755 231 q 830 244 819 221 q 842 307 842 267 l 869 307 q 847 218 871 256 q 761 178 824 180 m 572 -22 q 229 120 365 -16 q 89 451 94 256 q 222 782 92 638 q 567 934 351 926 q 919 786 792 927 q 1047 454 1045 646 q 926 140 1046 291 q 572 -22 806 -11 m 150 451 q 294 138 160 244 q 567 31 428 32 q 858 151 734 35 q 989 454 983 267 q 860 760 983 644 q 570 878 738 875 q 270 751 387 873 q 150 451 154 629 m 564 709 q 514 699 530 710 q 497 656 497 687 l 497 481 l 561 481 q 651 510 613 481 q 692 601 690 538 q 654 681 690 653 q 564 709 617 709 z "},"©":{"ha":1136,"x_min":89,"x_max":1047,"o":"m 403 459 q 450 266 404 332 q 581 201 496 201 q 696 239 649 203 q 770 317 744 275 l 794 307 q 713 209 768 254 q 561 162 658 165 q 376 237 460 163 q 286 445 292 311 q 366 656 289 574 q 561 740 444 737 q 664 716 629 737 q 720 692 700 695 q 748 708 735 694 q 761 736 760 723 l 783 736 l 783 526 l 758 526 q 718 626 760 552 q 567 709 675 700 q 438 630 474 705 q 403 459 401 555 m 572 -22 q 229 120 365 -16 q 89 451 94 256 q 222 782 92 638 q 567 934 351 926 q 919 786 792 927 q 1047 454 1045 646 q 926 140 1046 291 q 572 -22 806 -11 m 150 451 q 294 138 160 244 q 567 31 428 32 q 858 151 734 35 q 989 454 983 267 q 860 760 983 644 q 570 878 738 875 q 270 751 387 873 q 150 451 154 629 z "},"†":{"ha":692,"x_min":61,"x_max":631,"o":"m 127 715 q 224 688 183 711 q 330 662 265 665 q 301 822 327 783 q 272 906 275 860 q 286 951 271 928 q 342 976 301 974 q 404 951 390 974 q 416 906 418 928 q 387 822 413 860 q 358 662 361 783 q 472 688 435 665 q 555 715 508 711 q 609 697 589 715 q 628 645 628 679 q 606 594 629 610 q 555 578 584 578 q 473 608 511 582 q 358 637 434 633 q 392 449 362 488 q 425 384 421 410 q 393 246 421 353 q 361 -195 365 139 l 328 -195 q 296 243 323 138 q 264 384 268 347 q 297 449 268 410 q 330 637 326 488 q 221 608 264 633 q 131 578 178 582 q 80 598 99 579 q 61 648 62 616 q 82 697 62 680 q 127 715 102 715 z "},"™":{"ha":1136,"x_min":161,"x_max":964,"o":"m 161 848 l 170 970 l 467 970 l 475 848 l 458 848 q 444 907 460 867 q 380 951 427 946 l 353 951 l 353 665 q 359 639 351 651 q 403 626 367 627 l 403 609 l 233 609 l 233 626 q 277 639 269 627 q 283 665 285 651 l 283 951 l 256 951 q 193 907 209 946 q 178 848 176 867 l 161 848 m 528 954 l 528 970 l 653 970 l 747 701 l 844 970 l 964 970 l 964 954 q 929 946 941 954 q 917 920 917 939 l 917 662 q 932 632 918 640 q 964 626 947 625 l 961 609 l 806 609 l 806 626 q 840 632 825 625 q 856 662 855 638 l 856 931 l 736 606 l 725 606 l 606 931 l 606 662 q 621 632 606 638 q 659 626 635 625 l 659 609 l 528 609 l 528 626 q 565 632 553 625 q 578 662 578 638 l 578 920 q 562 947 577 941 q 528 954 547 954 z "},"¦":{"ha":692,"x_min":297,"x_max":395,"o":"m 297 962 l 395 962 l 395 454 l 297 454 l 297 962 m 297 273 l 395 273 l 395 -236 l 297 -236 l 297 273 z "},"¸":{"ha":692,"x_min":192,"x_max":533,"o":"m 364 -250 q 423 -235 400 -250 q 447 -195 446 -221 q 427 -143 446 -163 q 375 -122 408 -122 q 351 -123 362 -121 q 330 -127 339 -125 l 330 -3 l 370 -3 l 370 -78 q 391 -76 382 -77 q 411 -75 401 -75 q 502 -102 471 -75 q 533 -183 533 -130 q 499 -266 534 -232 q 389 -302 465 -300 q 290 -288 339 -302 q 192 -250 241 -275 l 214 -203 q 300 -237 260 -225 q 364 -250 340 -250 z "},"¹":{"ha":456,"x_min":75,"x_max":386,"o":"m 183 884 q 132 869 165 883 q 81 845 100 855 l 75 862 l 278 964 l 278 498 q 292 413 275 433 q 386 395 309 393 l 386 381 l 83 381 l 83 395 q 183 415 163 394 q 200 498 203 437 l 200 850 q 196 875 200 865 q 183 884 192 884 z "},"×":{"ha":1153,"x_min":197,"x_max":964,"o":"m 261 792 l 581 473 l 900 792 l 964 728 l 644 409 l 964 90 l 900 26 l 581 345 l 261 26 l 197 90 l 517 409 l 197 728 l 261 792 z "},"'":{"ha":239,"x_min":58,"x_max":178,"o":"m 106 581 l 58 915 q 76 967 59 950 q 119 984 92 984 q 161 967 145 984 q 178 915 177 950 l 131 581 l 106 581 z "},"‰":{"ha":1878,"x_min":103,"x_max":1777,"o":"m 422 973 q 500 957 472 973 q 553 921 529 941 q 611 885 576 901 q 708 867 646 869 q 862 909 791 869 q 972 1001 933 949 l 1028 1001 l 342 -41 l 283 -41 l 908 898 q 817 854 865 871 q 703 837 768 838 q 639 844 669 837 q 583 859 608 850 l 586 795 q 503 574 585 702 q 275 434 422 446 q 148 486 192 436 q 103 609 104 536 q 202 845 108 726 q 422 973 296 964 m 1203 359 q 1110 117 1200 241 q 884 -17 1020 -6 q 761 41 804 -14 q 717 170 718 95 q 816 405 722 288 q 1042 531 910 522 q 1166 481 1128 530 q 1203 359 1204 433 m 1055 490 q 893 338 972 475 q 808 123 814 202 q 831 56 808 82 q 903 28 853 29 q 1080 140 1001 35 q 1164 365 1159 245 q 1138 453 1164 418 q 1055 490 1112 488 m 436 926 q 277 775 354 910 q 195 570 200 640 q 219 497 195 522 q 297 473 243 473 q 468 590 391 482 q 550 787 545 698 q 549 833 551 813 q 539 876 547 853 q 482 906 506 888 q 436 926 458 924 m 1630 490 q 1469 338 1548 475 q 1383 123 1390 202 q 1406 56 1383 82 q 1478 28 1428 29 q 1655 140 1576 35 q 1739 365 1734 245 q 1713 453 1739 418 q 1630 490 1687 488 m 1617 531 q 1741 481 1704 530 q 1777 359 1778 433 q 1685 117 1774 241 q 1458 -17 1595 -6 q 1336 41 1379 -14 q 1292 170 1293 95 q 1391 405 1297 288 q 1617 531 1485 522 z "},"Œ":{"ha":1514,"x_min":61,"x_max":1458,"o":"m 697 159 l 697 801 q 651 884 696 855 q 536 912 606 912 q 295 773 374 904 q 216 484 216 642 q 311 149 220 263 q 536 34 401 35 q 648 62 601 33 q 697 159 695 91 m 736 948 l 1367 948 l 1378 743 l 1350 743 q 1302 859 1337 819 q 1161 898 1267 898 l 942 898 q 853 886 868 901 q 842 798 838 870 l 842 578 q 848 534 840 546 q 897 523 857 522 l 1111 523 q 1224 551 1191 522 q 1261 659 1257 581 l 1292 659 l 1292 331 l 1261 331 q 1233 432 1260 395 q 1111 470 1206 469 l 897 470 q 847 460 855 471 q 842 406 840 448 l 842 142 q 858 65 838 82 q 972 51 878 49 l 1133 51 q 1313 86 1240 48 q 1436 239 1385 124 l 1458 229 l 1386 0 l 786 0 q 652 -9 740 -1 q 511 -20 564 -18 q 208 110 346 -18 q 61 475 70 237 q 188 824 64 684 q 511 970 312 965 q 637 959 568 969 q 736 948 707 949 z "},"œ":{"ha":1219,"x_min":45,"x_max":1173,"o":"m 986 445 q 997 452 994 445 q 1000 470 1000 460 q 963 574 1000 530 q 864 620 926 618 q 736 559 777 616 q 694 445 694 503 l 986 445 m 378 665 q 542 625 477 663 q 642 528 607 586 q 740 626 685 591 q 886 662 794 661 q 1073 582 1009 658 q 1136 406 1136 506 l 689 406 l 689 345 q 749 174 690 256 q 922 87 809 92 q 1053 131 998 88 q 1147 239 1107 174 l 1173 226 q 1053 55 1127 123 q 864 -17 979 -14 q 721 22 779 -15 q 633 112 663 58 q 524 15 585 49 q 364 -20 462 -18 q 141 66 233 -19 q 45 323 49 152 q 128 559 45 459 q 378 665 211 660 m 172 373 q 235 111 175 203 q 380 18 294 19 q 510 68 456 14 q 567 279 564 122 q 514 520 567 417 q 353 629 461 623 q 216 553 260 626 q 172 373 172 480 z "},"—":{"ha":1383,"x_min":0,"x_max":1383,"o":"m 0 365 l 1383 365 l 1383 290 l 0 290 l 0 365 z "},"–":{"ha":692,"x_min":0,"x_max":689,"o":"m 689 365 l 689 290 l 0 290 l 0 365 l 689 365 z "},"…":{"ha":1378,"x_min":144,"x_max":1231,"o":"m 144 67 q 166 124 144 102 q 228 148 188 147 q 290 122 268 146 q 311 64 311 97 q 291 8 311 32 q 228 -17 270 -15 q 165 9 186 -15 q 144 67 144 33 m 603 67 q 625 124 603 102 q 686 148 646 147 q 748 122 726 146 q 770 64 770 97 q 749 8 770 32 q 686 -17 728 -15 q 624 9 645 -15 q 603 67 603 33 m 1064 67 q 1086 124 1064 102 q 1147 148 1107 147 q 1209 122 1187 146 q 1231 64 1231 97 q 1210 8 1231 32 q 1147 -17 1190 -15 q 1085 9 1106 -15 q 1064 67 1064 33 z "},"‡":{"ha":692,"x_min":61,"x_max":631,"o":"m 127 715 q 222 690 182 711 q 328 665 262 668 q 300 823 324 786 q 272 906 275 860 q 286 951 271 928 q 342 976 301 974 q 404 951 390 974 q 416 906 418 928 q 389 823 413 860 q 361 665 364 786 q 469 690 431 668 q 555 715 507 711 q 609 697 589 715 q 628 645 628 679 q 606 594 629 610 q 555 578 584 578 q 466 606 509 582 q 361 634 422 631 q 392 448 365 494 q 422 384 418 403 q 392 321 418 365 q 361 137 365 277 q 470 163 429 140 q 555 190 511 186 q 606 174 584 190 q 628 123 629 158 q 609 72 628 90 q 555 54 589 54 q 470 80 507 57 q 361 106 433 103 q 389 -51 364 -13 q 416 -136 413 -89 q 404 -180 418 -158 q 342 -205 390 -203 q 286 -180 301 -203 q 272 -136 271 -158 q 300 -51 275 -89 q 328 106 324 -13 q 222 80 262 103 q 127 54 182 57 q 82 71 102 54 q 61 120 62 89 q 80 171 62 152 q 131 190 99 189 q 220 163 178 186 q 328 137 261 140 q 296 322 323 277 q 264 384 268 367 q 296 448 268 401 q 328 634 323 494 q 220 606 261 631 q 131 578 178 582 q 80 598 99 579 q 61 648 62 616 q 82 697 62 680 q 127 715 102 715 z "},"„":{"ha":647,"x_min":69,"x_max":570,"o":"m 272 20 q 230 -111 273 -47 q 86 -228 187 -174 l 69 -208 q 181 -110 146 -156 q 216 -22 217 -63 q 210 -2 216 -5 q 189 1 203 1 q 168 0 178 1 q 147 0 158 0 q 100 17 119 1 q 81 59 81 33 q 98 115 80 92 q 164 140 117 138 q 247 101 222 138 q 272 20 273 64 m 370 -208 q 509 -62 488 -123 q 497 1 530 -1 q 470 0 483 1 q 447 0 458 0 q 400 17 419 1 q 380 59 381 33 q 398 115 380 92 q 464 140 417 138 q 546 101 522 138 q 570 20 570 64 q 529 -111 571 -47 q 386 -228 487 -174 l 370 -208 z "},"“":{"ha":647,"x_min":61,"x_max":561,"o":"m 358 726 q 400 859 357 795 q 545 976 444 923 l 561 956 q 449 858 484 905 q 414 770 413 812 q 420 749 414 754 q 441 745 427 745 q 463 747 452 745 q 484 748 473 748 q 530 730 511 747 q 550 687 549 713 q 532 631 551 654 q 467 606 513 608 q 383 645 409 608 q 358 726 357 682 m 261 956 q 121 810 142 872 q 134 745 100 748 q 160 747 148 745 q 183 748 173 748 q 231 730 212 747 q 250 687 250 713 q 232 631 251 654 q 167 606 214 608 q 85 645 109 608 q 61 726 60 682 q 102 859 60 795 q 244 976 144 923 l 261 956 z "},"”":{"ha":647,"x_min":69,"x_max":570,"o":"m 272 857 q 230 723 273 787 q 86 606 187 659 l 69 626 q 181 724 146 677 q 216 812 217 770 q 210 833 216 828 q 189 837 203 838 q 168 836 178 837 q 147 834 158 834 q 100 852 119 835 q 81 895 81 869 q 98 951 80 927 q 164 976 117 975 q 247 937 222 974 q 272 857 273 901 m 370 626 q 509 772 488 710 q 497 837 530 833 q 470 836 483 837 q 447 834 458 834 q 400 852 419 835 q 380 895 381 869 q 398 951 380 927 q 464 976 417 975 q 546 937 522 974 q 570 857 570 901 q 529 723 571 787 q 386 606 487 659 l 370 626 z "},"À":{"ha":1064,"x_min":-6,"x_max":1075,"o":"m 192 87 q 208 47 189 66 q 302 26 227 27 l 302 0 l -6 0 l -6 26 q 40 36 18 26 q 72 56 61 45 q 156 198 85 55 q 525 970 227 340 l 558 970 q 910 196 843 338 q 989 56 977 53 q 1031 30 1011 35 q 1075 26 1050 25 l 1075 0 l 677 0 l 677 26 q 748 35 712 24 q 786 84 783 45 q 749 194 783 121 q 694 315 715 268 l 283 315 q 229 191 263 265 q 192 87 194 117 m 494 773 l 309 368 l 672 368 l 494 773 m 358 1245 q 369 1277 358 1264 q 403 1290 380 1289 q 463 1260 422 1297 q 667 1050 504 1223 l 623 1050 q 391 1196 433 1166 q 358 1245 350 1226 z "},"Â":{"ha":1064,"x_min":-6,"x_max":1075,"o":"m 192 87 q 208 47 189 66 q 302 26 227 27 l 302 0 l -6 0 l -6 26 q 40 36 18 26 q 72 56 61 45 q 156 198 85 55 q 525 970 227 340 l 558 970 q 910 196 843 338 q 989 56 977 53 q 1031 30 1011 35 q 1075 26 1050 25 l 1075 0 l 677 0 l 677 26 q 748 35 712 24 q 786 84 783 45 q 749 194 783 121 q 694 315 715 268 l 283 315 q 229 191 263 265 q 192 87 194 117 m 494 773 l 309 368 l 672 368 l 494 773 m 705 1050 l 550 1192 l 392 1050 l 353 1050 l 509 1284 l 589 1284 l 745 1050 l 705 1050 z "},"È":{"ha":964,"x_min":31,"x_max":942,"o":"m 591 1050 l 547 1050 q 316 1196 357 1166 q 283 1245 275 1226 q 294 1277 283 1264 q 328 1290 304 1289 q 388 1260 347 1297 q 591 1050 429 1223 m 31 926 l 31 954 l 847 954 l 861 745 l 833 745 q 784 861 821 822 q 644 901 747 901 l 425 901 q 335 888 351 904 q 322 801 319 873 l 322 581 q 331 537 321 549 q 380 526 340 525 l 595 526 q 715 558 686 526 q 747 662 744 591 l 772 662 l 772 331 l 747 331 q 718 433 747 395 q 595 473 689 471 l 380 473 q 329 463 338 474 q 322 409 320 451 l 322 145 q 340 68 318 85 q 456 54 361 52 l 636 54 q 808 87 747 50 q 917 239 868 124 l 942 231 l 869 0 l 31 0 l 31 26 q 137 47 101 25 q 172 123 172 70 l 172 826 q 140 902 173 878 q 31 926 107 926 z "},"Ê":{"ha":964,"x_min":31,"x_max":942,"o":"m 31 954 l 847 954 l 861 745 l 833 745 q 784 861 821 822 q 644 901 747 901 l 425 901 q 335 888 351 904 q 322 801 319 873 l 322 581 q 331 537 321 549 q 380 526 340 525 l 595 526 q 715 558 686 526 q 747 662 744 591 l 772 662 l 772 331 l 747 331 q 718 433 747 395 q 595 473 689 471 l 380 473 q 329 463 338 474 q 322 409 320 451 l 322 145 q 340 68 318 85 q 456 54 361 52 l 636 54 q 808 87 747 50 q 917 239 868 124 l 942 231 l 869 0 l 31 0 l 31 26 q 137 47 101 25 q 172 123 172 70 l 172 826 q 140 902 173 878 q 31 926 107 926 l 31 954 m 631 1050 l 475 1192 l 317 1050 l 278 1050 l 433 1284 l 514 1284 l 669 1050 l 631 1050 z "},"Ë":{"ha":964,"x_min":31,"x_max":942,"o":"m 31 954 l 847 954 l 861 745 l 833 745 q 784 861 821 822 q 644 901 747 901 l 425 901 q 335 888 351 904 q 322 801 319 873 l 322 581 q 331 537 321 549 q 380 526 340 525 l 595 526 q 715 558 686 526 q 747 662 744 591 l 772 662 l 772 331 l 747 331 q 718 433 747 395 q 595 473 689 471 l 380 473 q 329 463 338 474 q 322 409 320 451 l 322 145 q 340 68 318 85 q 456 54 361 52 l 636 54 q 808 87 747 50 q 917 239 868 124 l 942 231 l 869 0 l 31 0 l 31 26 q 137 47 101 25 q 172 123 172 70 l 172 826 q 140 902 173 878 q 31 926 107 926 l 31 954 m 355 1087 q 306 1109 322 1088 q 289 1154 289 1129 q 307 1198 289 1178 q 355 1220 324 1219 q 403 1197 387 1219 q 419 1154 419 1176 q 404 1110 419 1131 q 355 1087 389 1088 m 591 1087 q 542 1109 558 1088 q 525 1154 525 1129 q 543 1198 525 1178 q 591 1220 560 1219 q 640 1197 623 1219 q 656 1154 656 1176 q 640 1110 656 1131 q 591 1087 625 1088 z "},"Î":{"ha":528,"x_min":47,"x_max":481,"o":"m 339 787 l 339 142 q 369 55 338 84 q 481 26 401 26 l 481 0 l 47 0 l 47 26 q 161 54 131 26 q 189 142 191 82 l 189 787 q 168 888 193 852 q 47 926 144 925 l 47 954 l 481 954 l 481 926 q 365 891 393 926 q 339 787 336 857 m 419 1050 l 264 1192 l 106 1050 l 66 1050 l 222 1284 l 302 1284 l 458 1050 l 419 1050 z "},"Ï":{"ha":528,"x_min":47,"x_max":481,"o":"m 339 787 l 339 142 q 369 55 338 84 q 481 26 401 26 l 481 0 l 47 0 l 47 26 q 161 54 131 26 q 189 142 191 82 l 189 787 q 168 888 193 852 q 47 926 144 925 l 47 954 l 481 954 l 481 926 q 365 891 393 926 q 339 787 336 857 m 144 1087 q 95 1109 111 1088 q 78 1154 78 1129 q 96 1198 78 1178 q 144 1220 113 1219 q 192 1197 176 1219 q 208 1154 208 1176 q 193 1110 208 1131 q 144 1087 178 1088 m 380 1087 q 331 1109 347 1088 q 314 1154 314 1129 q 332 1198 314 1178 q 380 1220 349 1219 q 428 1197 412 1219 q 444 1154 444 1176 q 429 1110 444 1131 q 380 1087 414 1088 z "},"´":{"ha":692,"x_min":225,"x_max":533,"o":"m 533 937 q 500 887 541 918 q 269 743 459 857 l 225 743 q 429 951 388 914 q 489 981 470 989 q 523 968 512 981 q 533 937 533 956 z "},"`":{"ha":692,"x_min":155,"x_max":464,"o":"m 155 937 q 166 968 155 956 q 200 981 177 981 q 260 951 219 989 q 464 743 301 914 l 419 743 q 188 887 229 857 q 155 937 147 918 z "},"ˆ":{"ha":692,"x_min":150,"x_max":542,"o":"m 347 884 l 189 743 l 150 743 l 306 976 l 386 976 l 542 743 l 503 743 l 347 884 z "},"¨":{"ha":692,"x_min":161,"x_max":528,"o":"m 228 779 q 178 800 195 780 q 161 845 161 821 q 179 890 161 869 q 228 912 196 911 q 275 889 259 911 q 292 845 292 867 q 276 801 292 823 q 228 779 261 780 m 464 779 q 414 800 431 780 q 397 845 397 821 q 415 890 397 869 q 464 912 433 911 q 511 889 495 911 q 528 845 528 867 q 512 801 528 823 q 464 779 497 780 z "},"˜":{"ha":692,"x_min":153,"x_max":536,"o":"m 153 776 q 194 876 163 838 q 281 915 224 913 q 368 900 326 913 q 439 884 411 886 q 481 899 467 884 q 503 939 495 914 l 536 939 q 495 845 526 882 q 403 806 465 808 q 320 822 359 808 q 253 837 281 835 q 212 822 229 837 q 186 776 196 807 l 153 776 z "},"Ù":{"ha":1136,"x_min":31,"x_max":1097,"o":"m 764 926 l 764 954 l 1097 954 l 1097 926 q 999 888 1027 924 q 972 795 971 851 l 972 345 q 869 76 972 176 q 572 -28 767 -24 q 275 58 378 -26 q 172 300 173 143 l 172 748 q 155 873 177 823 q 31 926 132 924 l 31 954 l 456 954 l 456 926 q 340 882 361 924 q 322 770 318 840 l 322 337 q 384 124 320 210 q 600 34 448 37 q 827 125 749 37 q 905 342 905 212 l 905 789 q 877 891 907 857 q 764 926 847 926 m 450 1290 q 510 1260 469 1297 q 714 1050 551 1223 l 669 1050 q 438 1196 479 1166 q 406 1245 397 1226 q 416 1277 406 1264 q 450 1290 427 1289 z "},"Û":{"ha":1136,"x_min":31,"x_max":1097,"o":"m 764 926 l 764 954 l 1097 954 l 1097 926 q 999 888 1027 924 q 972 795 971 851 l 972 345 q 869 76 972 176 q 572 -28 767 -24 q 275 58 378 -26 q 172 300 173 143 l 172 748 q 155 873 177 823 q 31 926 132 924 l 31 954 l 456 954 l 456 926 q 340 882 361 924 q 322 770 318 840 l 322 337 q 384 124 320 210 q 600 34 448 37 q 827 125 749 37 q 905 342 905 212 l 905 789 q 877 891 907 857 q 764 926 847 926 m 753 1050 l 597 1192 l 439 1050 l 400 1050 l 555 1284 l 636 1284 l 791 1050 l 753 1050 z "},"¯":{"ha":692,"x_min":0,"x_max":689,"o":"m 0 1050 l 689 1050 l 689 956 l 0 956 l 0 1050 z "},"Ý":{"ha":1061,"x_min":22,"x_max":1039,"o":"m 742 926 l 742 954 l 1039 954 l 1039 926 q 920 856 981 932 q 633 426 858 781 l 633 140 q 665 51 632 76 q 775 26 697 25 l 775 0 l 342 0 l 342 26 q 453 54 422 26 q 484 142 485 82 l 484 409 q 278 699 351 594 q 166 850 205 804 q 98 910 127 897 q 22 926 68 923 l 22 954 l 461 954 l 461 926 q 370 908 393 921 q 350 878 348 895 q 380 818 350 865 q 452 709 410 770 q 537 589 494 648 q 606 492 579 531 q 669 591 631 531 q 749 713 708 651 q 818 822 790 776 q 847 881 846 869 q 818 912 846 899 q 742 926 789 925 m 675 1290 q 709 1277 698 1289 q 720 1245 720 1264 q 687 1196 728 1226 q 456 1050 646 1166 l 411 1050 q 615 1260 574 1223 q 675 1290 656 1297 z "},"ý":{"ha":616,"x_min":-28,"x_max":614,"o":"m 208 -272 q 138 -316 174 -304 q 78 -328 102 -328 q 17 -306 37 -326 q -3 -253 -3 -286 q 12 -212 -3 -229 q 56 -195 26 -195 q 106 -205 91 -195 q 147 -216 121 -214 q 210 -177 182 -219 q 289 -11 237 -134 q 134 348 191 218 q 47 538 77 479 q 3 611 18 597 q -28 623 -13 626 l -28 645 l 261 645 l 261 623 q 196 610 211 623 q 183 581 182 597 q 201 513 183 565 q 247 392 220 460 q 300 258 273 323 q 345 151 326 194 q 429 389 378 243 q 484 581 479 535 q 470 611 485 599 q 408 623 455 623 l 408 645 l 614 645 l 614 623 q 591 620 600 623 q 572 606 582 616 q 506 462 550 581 q 409 188 463 342 q 303 -96 355 34 q 208 -272 250 -227 m 453 981 q 487 968 476 981 q 497 937 497 956 q 464 887 505 918 q 233 743 423 857 l 189 743 q 393 951 351 914 q 453 981 434 989 z "},"°":{"ha":456,"x_min":33,"x_max":419,"o":"m 228 592 q 82 654 132 595 q 33 784 33 712 q 85 916 34 857 q 228 979 136 975 q 369 915 320 975 q 419 789 418 856 q 371 660 419 722 q 228 592 323 597 m 94 784 q 130 693 95 730 q 225 654 165 655 q 320 694 284 656 q 358 784 357 732 q 322 876 357 836 q 228 918 287 916 q 132 877 168 916 q 94 784 96 838 z "},"Ç":{"ha":981,"x_min":64,"x_max":970,"o":"m 970 193 q 770 24 869 70 q 575 -20 671 -22 l 575 -78 q 597 -76 587 -77 q 616 -75 606 -75 q 708 -102 677 -75 q 739 -183 739 -130 q 705 -266 740 -232 q 595 -302 671 -300 q 496 -288 545 -302 q 397 -250 447 -275 l 419 -203 q 506 -237 466 -225 q 570 -250 546 -250 q 629 -235 606 -250 q 653 -195 652 -221 q 634 -143 653 -163 q 581 -122 614 -122 q 556 -123 568 -121 q 536 -127 545 -125 l 536 -20 q 169 156 277 -5 q 64 462 60 317 q 198 824 66 678 q 567 976 331 970 q 749 948 696 972 q 850 920 802 924 q 882 935 871 921 q 895 967 892 948 l 920 967 l 947 659 l 920 659 q 821 834 895 749 q 595 926 747 920 q 311 779 398 917 q 225 484 224 642 q 311 181 224 319 q 595 34 398 43 q 798 87 713 36 q 945 220 883 139 l 970 193 z "},"ç":{"ha":608,"x_min":39,"x_max":595,"o":"m 345 -17 l 345 -78 q 366 -76 357 -77 q 386 -75 376 -75 q 477 -102 446 -75 q 509 -183 509 -130 q 475 -266 509 -232 q 364 -302 440 -300 q 265 -288 314 -302 q 167 -250 216 -275 l 189 -203 q 276 -237 236 -225 q 339 -250 315 -250 q 398 -235 375 -250 q 422 -195 422 -221 q 403 -143 422 -163 q 350 -122 384 -122 q 326 -123 338 -121 q 306 -127 314 -125 l 306 -17 q 119 74 196 -14 q 39 300 42 162 q 120 552 39 446 q 358 665 201 659 q 510 623 454 663 q 567 523 566 583 q 551 476 567 495 q 500 456 535 457 q 428 538 428 467 q 334 620 428 610 q 198 537 243 615 q 153 365 153 459 q 201 179 151 269 q 367 84 251 90 q 490 124 442 85 q 572 220 538 163 l 595 206 q 498 66 564 132 q 345 -17 431 0 z "},"Ñ":{"ha":1064,"x_min":25,"x_max":1047,"o":"m 703 928 l 703 956 l 1047 956 l 1047 928 q 939 903 972 929 q 905 817 905 877 l 905 1 l 878 1 l 231 773 l 231 145 q 265 53 231 79 q 370 28 299 27 l 370 1 l 25 1 l 25 28 q 138 57 107 28 q 167 145 168 85 l 167 831 q 106 901 140 874 q 25 928 73 928 l 25 956 l 272 956 l 842 273 l 842 817 q 811 900 842 871 q 703 928 779 928 m 372 1084 l 339 1084 q 380 1183 349 1145 q 467 1223 411 1221 q 554 1207 511 1221 q 625 1192 597 1194 q 667 1208 654 1193 q 689 1248 681 1223 l 722 1248 q 681 1154 712 1191 q 589 1115 650 1116 q 506 1130 545 1117 q 439 1145 467 1143 q 398 1130 414 1145 q 372 1084 382 1115 z "},"ñ":{"ha":758,"x_min":31,"x_max":725,"o":"m 211 776 l 178 776 q 219 876 188 838 q 306 915 250 913 q 393 900 351 913 q 464 884 436 886 q 506 899 492 884 q 528 939 520 914 l 561 939 q 520 845 551 882 q 428 806 490 808 q 345 822 384 808 q 278 837 306 835 q 237 822 253 837 q 211 776 221 807 m 131 120 l 131 512 q 112 568 132 556 q 31 578 92 580 l 31 601 q 145 632 83 610 q 250 673 208 653 l 250 565 q 351 637 294 608 q 472 667 407 666 q 603 605 568 664 q 636 475 638 546 l 636 120 q 652 50 635 76 q 725 23 670 24 l 725 1 l 416 1 l 416 23 q 498 47 477 23 q 517 120 518 72 l 517 448 q 490 547 517 509 q 400 587 462 585 q 311 564 348 585 q 250 512 275 542 l 250 120 q 269 45 249 68 q 345 23 289 22 l 345 1 l 31 1 l 31 23 q 108 45 84 22 q 131 120 132 68 z "},"¡":{"ha":450,"x_min":142,"x_max":306,"o":"m 297 81 q 281 6 298 33 q 220 -22 264 -21 q 160 6 177 -21 q 144 81 144 33 l 208 698 l 236 698 l 297 81 m 142 895 q 164 952 142 929 q 222 976 186 975 q 282 952 258 975 q 306 895 305 929 q 283 837 305 861 q 222 812 260 813 q 163 837 184 813 q 142 895 142 861 z "},"¿":{"ha":681,"x_min":86,"x_max":581,"o":"m 489 104 q 468 153 486 134 q 447 226 450 173 q 466 265 448 251 q 511 279 484 279 q 563 252 545 277 q 581 190 581 226 q 510 44 578 104 q 342 -20 442 -16 q 156 45 224 -17 q 86 201 87 107 q 122 346 87 286 q 204 457 157 406 q 289 566 252 508 q 334 701 326 623 l 364 701 q 333 550 355 613 q 282 435 310 487 q 234 327 254 382 q 214 198 214 271 q 255 73 214 123 q 375 20 296 22 q 454 46 420 22 q 489 104 488 71 m 350 812 q 290 835 313 812 q 267 892 267 858 q 290 950 267 926 q 350 976 313 975 q 408 950 386 975 q 431 892 430 926 q 408 835 430 858 q 350 812 386 812 z "},"¤":{"ha":839,"x_min":56,"x_max":783,"o":"m 214 595 q 274 450 216 508 q 419 389 332 391 q 565 450 507 391 q 625 595 623 508 q 565 741 623 683 q 419 801 507 799 q 274 741 332 799 q 214 595 216 683 m 419 315 q 323 329 368 315 q 248 373 277 344 l 109 234 l 56 287 l 195 426 q 149 508 161 460 q 136 595 136 556 q 149 682 136 634 q 195 764 161 730 l 56 903 l 109 956 l 248 817 q 323 861 277 846 q 419 876 368 876 q 516 861 471 876 q 591 817 562 846 l 730 956 l 783 903 l 644 764 q 690 682 677 730 q 703 595 703 634 q 690 508 703 556 q 644 426 677 460 l 783 287 l 730 234 l 591 373 q 516 329 562 344 q 419 315 471 315 z "},"£":{"ha":692,"x_min":14,"x_max":664,"o":"m 264 79 q 199 10 237 36 q 106 -17 161 -16 q 40 5 65 -16 q 14 62 14 26 q 51 150 14 119 q 150 181 87 180 q 189 177 169 181 q 225 168 208 174 q 228 291 230 229 q 214 459 226 354 l 69 459 l 81 515 l 211 515 q 207 577 209 543 q 205 642 205 612 q 257 864 203 764 q 447 970 310 964 q 571 931 524 969 q 619 837 618 892 q 606 781 619 803 q 564 759 593 760 q 526 774 538 760 q 514 806 514 789 q 517 832 515 817 q 519 859 519 846 q 497 910 519 888 q 433 934 475 932 q 352 884 381 931 q 322 779 323 838 q 327 649 322 725 q 336 515 332 572 l 525 515 l 517 459 l 342 459 q 332 281 342 349 q 294 142 321 214 q 408 109 353 123 q 509 95 462 96 q 615 130 585 99 q 653 165 644 161 q 663 158 661 164 q 664 142 665 151 q 618 42 663 98 q 497 -20 574 -14 q 369 14 428 -17 q 264 79 310 45 m 119 137 q 72 119 90 137 q 53 70 54 102 q 68 32 53 43 q 114 20 83 20 q 179 49 155 22 q 214 112 203 77 q 168 131 191 124 q 119 137 144 137 z "},"¥":{"ha":925,"x_min":-26,"x_max":936,"o":"m 736 845 q 730 908 762 890 q 642 926 699 926 l 642 954 l 936 954 q 936 942 936 952 q 936 926 936 931 q 861 907 897 926 q 800 850 825 888 l 672 662 l 905 662 l 905 617 l 642 617 l 545 473 l 905 473 l 905 429 l 517 429 l 517 142 q 545 53 515 81 q 659 26 575 25 l 659 0 l 261 0 l 261 26 q 373 53 341 25 q 403 142 404 81 l 403 429 l 11 429 l 11 473 l 380 473 l 281 617 l 11 617 l 11 662 l 250 662 l 131 831 q 64 902 99 878 q -26 926 30 926 q -25 943 -25 932 q -26 954 -25 953 l 361 954 q 361 942 361 952 q 361 926 361 931 q 260 904 284 926 q 264 840 237 882 l 503 492 l 736 845 z "},"§":{"ha":692,"x_min":78,"x_max":611,"o":"m 325 -175 q 181 -137 237 -174 q 122 -39 124 -100 q 139 18 121 -7 q 197 45 156 44 q 249 25 231 44 q 267 -14 267 7 q 244 -70 264 -55 q 222 -97 225 -84 q 251 -130 224 -117 q 314 -144 277 -143 q 415 -107 386 -141 q 444 -45 445 -74 q 386 66 440 12 q 260 176 332 120 q 135 295 189 233 q 78 431 81 357 q 138 554 81 511 q 272 598 195 597 q 180 695 215 649 q 144 789 145 741 q 203 925 146 876 q 353 976 260 975 q 493 935 443 975 q 545 834 544 896 q 528 780 545 806 q 467 753 510 755 q 419 770 437 754 q 400 812 401 786 q 422 860 403 839 q 444 895 441 880 q 419 926 444 911 q 353 943 395 941 q 272 915 300 942 q 244 840 244 888 q 301 730 248 784 q 427 621 355 677 q 553 502 498 565 q 611 365 607 439 q 561 245 610 294 q 416 195 511 197 q 511 95 476 146 q 547 -20 547 45 q 483 -128 545 -83 q 325 -175 421 -172 m 414 229 q 495 260 470 230 q 519 334 520 290 q 422 477 511 394 q 272 568 333 559 q 197 537 224 567 q 170 456 170 507 q 265 321 178 406 q 414 229 351 237 z "},"ƒ":{"ha":692,"x_min":-15,"x_max":659,"o":"m 289 531 l 142 531 l 150 573 l 297 573 q 361 843 304 709 q 539 987 417 977 q 628 961 597 986 q 659 898 659 937 q 647 851 659 870 q 603 831 635 832 q 561 843 574 831 q 547 876 547 854 q 558 908 549 894 q 570 939 568 922 q 558 950 566 946 q 539 954 551 954 q 441 835 471 947 q 403 573 412 722 l 575 573 l 570 531 l 397 531 q 264 -186 342 -39 q 103 -311 187 -332 q 19 -282 52 -309 q -15 -220 -13 -256 q -2 -176 -15 -199 q 45 -153 12 -154 q 83 -167 70 -153 q 97 -200 97 -182 q 89 -231 96 -220 q 81 -256 82 -243 q 87 -271 81 -265 q 106 -278 93 -277 q 172 -244 147 -279 q 212 -119 196 -208 q 245 128 228 -31 q 289 531 262 287 z "},"¢":{"ha":692,"x_min":66,"x_max":625,"o":"m 511 659 q 571 614 546 642 q 597 540 596 587 q 581 494 597 512 q 530 475 564 476 q 490 490 506 476 q 467 526 475 504 l 328 117 q 363 106 343 111 q 403 101 384 101 q 517 138 469 102 q 603 237 566 175 l 625 223 q 506 61 574 120 q 342 0 438 1 l 289 1 l 244 -134 l 200 -134 l 250 15 q 110 142 155 60 q 66 317 66 224 q 157 582 69 482 q 383 684 245 682 q 432 681 407 684 q 472 675 457 677 l 503 773 l 550 773 l 511 659 m 444 598 q 421 626 444 613 q 364 640 398 639 q 230 556 276 635 q 183 381 184 477 q 209 238 183 304 q 292 137 235 172 l 444 598 z "},"â":{"ha":681,"x_min":64,"x_max":661,"o":"m 547 106 q 558 73 547 87 q 591 59 568 60 q 619 68 604 60 q 644 87 633 76 l 661 70 q 607 13 647 41 q 519 -17 567 -14 q 458 13 481 -15 q 433 73 434 40 q 332 9 384 33 q 220 -17 279 -16 q 101 31 139 -14 q 64 145 63 77 q 155 293 64 237 q 431 417 245 350 l 431 515 q 406 599 431 566 q 317 634 380 633 q 243 611 275 633 q 208 559 210 589 l 216 520 q 201 472 216 492 q 150 451 185 452 q 106 471 123 452 q 89 520 90 490 q 162 622 92 581 q 322 665 231 663 q 488 615 429 663 q 547 498 547 568 l 547 106 m 294 48 q 386 79 343 51 q 431 132 428 108 l 431 376 q 252 293 322 339 q 180 176 182 247 q 212 87 181 124 q 294 48 242 50 m 486 743 l 330 884 l 172 743 l 134 743 l 289 976 l 370 976 l 525 743 l 486 743 z "},"ê":{"ha":684,"x_min":50,"x_max":636,"o":"m 353 884 l 195 743 l 155 743 l 311 976 l 392 976 l 547 743 l 509 743 l 353 884 m 50 320 q 129 560 52 460 q 347 665 207 660 q 539 582 478 660 q 600 409 601 503 l 153 409 q 208 183 152 276 q 383 87 263 91 q 524 135 470 90 q 611 239 578 181 l 636 229 q 532 70 604 150 q 328 -17 459 -10 q 117 84 184 -12 q 50 320 50 180 m 441 448 q 460 457 456 448 q 464 481 465 467 q 437 567 467 515 q 319 623 408 618 q 207 569 253 621 q 158 448 160 517 l 441 448 z "},"ô":{"ha":755,"x_min":45,"x_max":697,"o":"m 383 665 q 617 563 538 660 q 697 337 696 467 q 621 95 699 200 q 364 -17 543 -11 q 125 84 205 -12 q 45 323 45 180 q 133 563 45 465 q 383 665 220 661 m 355 626 q 213 544 255 621 q 172 370 171 467 q 217 148 170 264 q 383 20 264 31 q 537 102 500 24 q 570 284 573 180 q 522 502 571 387 q 355 626 473 616 m 533 743 l 378 884 l 220 743 l 180 743 l 336 976 l 416 976 l 572 743 l 533 743 z "},"û":{"ha":755,"x_min":17,"x_max":722,"o":"m 406 609 q 406 619 406 610 q 406 631 406 628 q 519 637 458 633 q 623 645 581 641 l 623 137 q 639 81 621 93 q 722 70 658 68 l 722 45 q 609 17 665 35 q 503 -22 553 0 l 503 84 q 404 13 458 41 q 286 -17 349 -15 q 149 44 184 -14 q 117 178 114 101 l 117 517 q 96 591 118 572 q 17 609 74 610 q 17 619 17 610 q 17 631 17 628 l 236 645 l 236 206 q 261 106 235 150 q 353 59 287 62 q 442 84 405 60 q 503 137 479 109 l 503 517 q 483 590 504 570 q 406 609 463 610 m 525 743 l 370 884 l 211 743 l 172 743 l 328 976 l 408 976 l 564 743 l 525 743 z "},"á":{"ha":681,"x_min":64,"x_max":661,"o":"m 294 48 q 386 79 343 51 q 431 132 428 108 l 431 376 q 252 293 322 339 q 180 176 182 247 q 212 87 181 124 q 294 48 242 50 m 89 520 q 162 622 92 581 q 322 665 231 663 q 488 615 429 663 q 547 498 547 568 l 547 106 q 558 73 547 87 q 591 59 568 60 q 619 68 604 60 q 644 87 633 76 l 661 70 q 607 13 647 41 q 519 -17 567 -14 q 458 13 481 -15 q 433 73 434 40 q 332 9 384 33 q 220 -17 279 -16 q 101 31 139 -14 q 64 145 63 77 q 155 293 64 237 q 431 417 245 350 l 431 515 q 406 599 431 566 q 317 634 380 633 q 243 611 275 633 q 208 559 210 589 l 216 520 q 201 472 216 492 q 150 451 185 452 q 106 471 123 452 q 89 520 90 490 m 472 981 q 506 968 495 981 q 517 937 517 956 q 484 887 525 918 q 253 743 443 857 l 208 743 q 412 951 371 914 q 472 981 453 989 z "},"é":{"ha":684,"x_min":50,"x_max":636,"o":"m 50 320 q 129 560 52 460 q 347 665 207 660 q 539 582 478 660 q 600 409 601 503 l 153 409 q 208 183 152 276 q 383 87 263 91 q 524 135 470 90 q 611 239 578 181 l 636 229 q 532 70 604 150 q 328 -17 459 -10 q 117 84 184 -12 q 50 320 50 180 m 158 448 l 441 448 q 460 457 456 448 q 464 481 465 467 q 437 567 467 515 q 319 623 408 618 q 207 569 253 621 q 158 448 160 517 m 494 981 q 528 968 517 981 q 539 937 539 956 q 506 887 547 918 q 275 743 465 857 l 231 743 q 434 951 393 914 q 494 981 475 989 z "},"ó":{"ha":755,"x_min":45,"x_max":697,"o":"m 697 337 q 621 95 699 200 q 364 -17 543 -11 q 125 84 205 -12 q 45 323 45 180 q 133 563 45 465 q 383 665 220 661 q 617 563 538 660 q 697 337 696 467 m 172 370 q 217 148 170 264 q 383 20 264 31 q 537 102 500 24 q 570 284 573 180 q 522 502 571 387 q 355 626 473 616 q 213 544 255 621 q 172 370 171 467 m 519 981 q 553 968 543 981 q 564 937 564 956 q 531 887 572 918 q 300 743 490 857 l 256 743 q 459 951 418 914 q 519 981 500 989 z "},"ú":{"ha":755,"x_min":17,"x_max":722,"o":"m 722 45 q 608 17 664 35 q 503 -22 553 0 l 503 84 q 404 13 458 41 q 286 -17 349 -15 q 149 44 184 -14 q 117 178 114 101 l 117 517 q 96 591 118 572 q 17 609 74 610 q 17 619 17 610 q 17 631 17 628 l 236 645 l 236 206 q 261 106 235 150 q 353 59 287 62 q 442 84 405 60 q 503 137 479 109 l 503 517 q 483 590 504 570 q 406 609 463 610 q 406 619 406 610 q 406 631 406 628 q 519 637 458 633 q 623 645 581 641 l 623 137 q 639 81 621 93 q 722 70 658 68 l 722 45 m 511 981 q 545 968 534 981 q 555 937 555 956 q 523 887 564 918 q 292 743 481 857 l 248 743 q 451 951 410 914 q 511 981 492 989 z "},"à":{"ha":681,"x_min":64,"x_max":661,"o":"m 547 106 q 558 73 547 87 q 591 59 568 60 q 619 68 604 60 q 644 87 633 76 l 661 70 q 607 13 647 41 q 519 -17 567 -14 q 458 13 481 -15 q 433 73 434 40 q 332 9 384 33 q 220 -17 279 -16 q 101 31 139 -14 q 64 145 63 77 q 155 293 64 237 q 431 417 245 350 l 431 515 q 406 599 431 566 q 317 634 380 633 q 243 611 275 633 q 208 559 210 589 l 216 520 q 201 472 216 492 q 150 451 185 452 q 106 471 123 452 q 89 520 90 490 q 162 622 92 581 q 322 665 231 663 q 488 615 429 663 q 547 498 547 568 l 547 106 m 180 176 q 212 87 181 124 q 294 48 242 50 q 386 79 343 51 q 431 132 428 108 l 431 376 q 252 293 322 339 q 180 176 182 247 m 183 981 q 243 951 202 989 q 447 743 285 914 l 403 743 q 172 887 213 857 q 139 937 131 918 q 150 968 139 956 q 183 981 160 981 z "},"è":{"ha":684,"x_min":50,"x_max":636,"o":"m 50 320 q 129 560 52 460 q 347 665 207 660 q 539 582 478 660 q 600 409 601 503 l 153 409 q 208 183 152 276 q 383 87 263 91 q 524 135 470 90 q 611 239 578 181 l 636 229 q 532 70 604 150 q 328 -17 459 -10 q 117 84 184 -12 q 50 320 50 180 m 441 448 q 460 457 456 448 q 464 481 465 467 q 437 567 467 515 q 319 623 408 618 q 207 569 253 621 q 158 448 160 517 l 441 448 m 205 981 q 266 951 224 989 q 469 743 307 914 l 425 743 q 194 887 235 857 q 161 937 153 918 q 172 968 161 956 q 205 981 182 981 z "},"ò":{"ha":755,"x_min":45,"x_max":697,"o":"m 697 337 q 621 95 699 200 q 364 -17 543 -11 q 125 84 205 -12 q 45 323 45 180 q 133 563 45 465 q 383 665 220 661 q 617 563 538 660 q 697 337 696 467 m 172 370 q 217 148 170 264 q 383 20 264 31 q 537 102 500 24 q 570 284 573 180 q 522 502 571 387 q 355 626 473 616 q 213 544 255 621 q 172 370 171 467 m 231 981 q 291 951 250 989 q 494 743 332 914 l 450 743 q 219 887 260 857 q 186 937 178 918 q 197 968 186 956 q 231 981 208 981 z "},"ù":{"ha":755,"x_min":17,"x_max":722,"o":"m 722 45 q 608 17 664 35 q 503 -22 553 0 l 503 84 q 404 13 458 41 q 286 -17 349 -15 q 149 44 184 -14 q 117 178 114 101 l 117 517 q 96 591 118 572 q 17 609 74 610 q 17 619 17 610 q 17 631 17 628 l 236 645 l 236 206 q 261 106 235 150 q 353 59 287 62 q 442 84 405 60 q 503 137 479 109 l 503 517 q 483 590 504 570 q 406 609 463 610 q 406 619 406 610 q 406 631 406 628 q 519 637 458 633 q 623 645 581 641 l 623 137 q 639 81 621 93 q 722 70 658 68 l 722 45 m 178 937 q 189 968 178 956 q 222 981 199 981 q 282 951 241 989 q 486 743 323 914 l 441 743 q 211 887 252 857 q 178 937 170 918 z "},"ä":{"ha":681,"x_min":64,"x_max":661,"o":"m 547 106 q 558 73 547 87 q 591 59 568 60 q 619 68 604 60 q 644 87 633 76 l 661 70 q 607 13 647 41 q 519 -17 567 -14 q 458 13 481 -15 q 433 73 434 40 q 332 9 384 33 q 220 -17 279 -16 q 101 31 139 -14 q 64 145 63 77 q 155 293 64 237 q 431 417 245 350 l 431 515 q 406 599 431 566 q 317 634 380 633 q 243 611 275 633 q 208 559 210 589 l 216 520 q 201 472 216 492 q 150 451 185 452 q 106 471 123 452 q 89 520 90 490 q 162 622 92 581 q 322 665 231 663 q 488 615 429 663 q 547 498 547 568 l 547 106 m 180 176 q 212 87 181 124 q 294 48 242 50 q 386 79 343 51 q 431 132 428 108 l 431 376 q 252 293 322 339 q 180 176 182 247 m 211 779 q 161 800 178 780 q 144 845 144 821 q 162 890 144 869 q 211 912 180 911 q 259 889 243 911 q 275 845 275 867 q 260 801 275 823 q 211 779 244 780 m 380 845 q 398 890 380 869 q 447 912 416 911 q 495 889 479 911 q 511 845 511 867 q 496 801 511 823 q 447 779 480 780 q 397 800 414 780 q 380 845 380 821 z "},"ë":{"ha":684,"x_min":50,"x_max":636,"o":"m 233 779 q 183 800 200 780 q 167 845 167 821 q 184 890 167 869 q 233 912 202 911 q 281 889 265 911 q 297 845 297 867 q 282 801 297 823 q 233 779 267 780 m 469 779 q 419 800 436 780 q 403 845 403 821 q 420 890 403 869 q 469 912 438 911 q 517 889 501 911 q 533 845 533 867 q 518 801 533 823 q 469 779 503 780 m 50 320 q 129 560 52 460 q 347 665 207 660 q 539 582 478 660 q 600 409 601 503 l 153 409 q 208 183 152 276 q 383 87 263 91 q 524 135 470 90 q 611 239 578 181 l 636 229 q 532 70 604 150 q 328 -17 459 -10 q 117 84 184 -12 q 50 320 50 180 m 158 448 l 441 448 q 460 457 456 448 q 464 481 465 467 q 437 567 467 515 q 319 623 408 618 q 207 569 253 621 q 158 448 160 517 z "},"ö":{"ha":755,"x_min":45,"x_max":697,"o":"m 258 779 q 209 800 225 780 q 192 845 192 821 q 209 890 192 869 q 258 912 227 911 q 306 889 290 911 q 322 845 322 867 q 307 801 322 823 q 258 779 292 780 m 494 779 q 445 800 461 780 q 428 845 428 821 q 446 890 428 869 q 494 912 463 911 q 542 889 526 911 q 558 845 558 867 q 543 801 558 823 q 494 779 528 780 m 383 665 q 617 563 538 660 q 697 337 696 467 q 621 95 699 200 q 364 -17 543 -11 q 125 84 205 -12 q 45 323 45 180 q 133 563 45 465 q 383 665 220 661 m 355 626 q 213 544 255 621 q 172 370 171 467 q 217 148 170 264 q 383 20 264 31 q 537 102 500 24 q 570 284 573 180 q 522 502 571 387 q 355 626 473 616 z "},"ü":{"ha":755,"x_min":17,"x_max":722,"o":"m 250 779 q 200 800 217 780 q 183 845 183 821 q 201 890 183 869 q 250 912 218 911 q 298 889 281 911 q 314 845 314 867 q 299 801 314 823 q 250 779 283 780 m 419 845 q 437 890 419 869 q 486 912 454 911 q 534 889 517 911 q 550 845 550 867 q 535 801 550 823 q 486 779 519 780 q 436 800 453 780 q 419 845 419 821 m 406 609 q 406 619 406 610 q 406 631 406 628 q 519 637 458 633 q 623 645 581 641 l 623 137 q 639 81 621 93 q 722 70 658 68 l 722 45 q 609 17 665 35 q 503 -22 553 0 l 503 84 q 404 13 458 41 q 286 -17 349 -15 q 149 44 184 -14 q 117 178 114 101 l 117 517 q 96 591 118 572 q 17 609 74 610 q 17 619 17 610 q 17 631 17 628 l 236 645 l 236 206 q 261 106 235 150 q 353 59 287 62 q 442 84 405 60 q 503 137 479 109 l 503 517 q 483 590 504 570 q 406 609 463 610 z "},"Å":{"ha":1064,"x_min":-6,"x_max":1075,"o":"m 192 87 q 208 47 189 66 q 302 26 227 27 l 302 0 l -6 0 l -6 26 q 40 36 18 26 q 72 56 61 45 q 156 198 85 55 q 525 970 227 340 l 558 970 q 910 196 843 338 q 989 56 977 53 q 1031 30 1011 35 q 1075 26 1050 25 l 1075 0 l 677 0 l 677 26 q 748 35 712 24 q 786 84 783 45 q 749 194 783 121 q 694 315 715 268 l 283 315 q 229 191 263 265 q 192 87 194 117 m 494 773 l 309 368 l 672 368 l 494 773 m 539 1326 q 653 1278 608 1324 q 700 1164 698 1233 q 653 1051 698 1096 q 539 1004 608 1006 q 425 1051 471 1006 q 378 1164 380 1096 q 425 1278 380 1233 q 539 1326 471 1324 m 539 1059 q 611 1092 580 1061 q 644 1164 643 1123 q 611 1237 643 1206 q 539 1270 580 1269 q 466 1237 498 1269 q 433 1164 435 1206 q 466 1092 435 1123 q 539 1059 498 1061 z "},"î":{"ha":375,"x_min":-3,"x_max":386,"o":"m 347 743 l 192 884 l 33 743 l -3 743 l 150 976 l 231 976 l 386 743 l 347 743 m 253 112 q 271 43 252 66 q 345 20 291 20 l 345 0 l 33 0 l 33 20 q 112 43 89 20 q 134 112 134 66 l 134 503 q 121 561 136 546 q 39 576 105 576 l 39 598 q 155 628 98 609 q 253 665 212 647 l 253 112 z "},"Ø":{"ha":1120,"x_min":64,"x_max":1053,"o":"m 766 842 q 684 900 730 878 q 550 923 639 922 q 295 772 374 913 q 216 470 215 631 q 239 294 216 364 q 302 162 261 224 l 766 842 m 64 475 q 182 817 62 671 q 561 970 302 963 q 704 952 646 970 q 811 909 761 935 l 911 1053 l 986 1053 l 867 878 q 1013 697 971 802 q 1053 473 1054 593 q 922 118 1051 256 q 553 -25 792 -20 q 409 -9 469 -24 q 294 37 349 7 l 189 -114 l 111 -114 l 241 73 q 108 243 152 146 q 64 475 64 340 m 558 23 q 818 166 734 31 q 900 470 901 302 q 883 650 901 576 q 808 792 865 724 l 345 112 q 437 45 387 68 q 558 23 487 23 z "},"Æ":{"ha":1450,"x_min":8,"x_max":1392,"o":"m 444 928 l 444 954 l 1303 954 l 1317 745 l 1292 745 q 1239 861 1280 819 q 1080 903 1199 903 l 886 903 q 803 889 818 906 q 791 801 789 873 l 791 581 q 798 538 790 549 q 839 528 805 528 l 1064 528 q 1168 557 1137 528 q 1203 659 1200 587 l 1225 659 l 1225 337 l 1203 337 q 1161 448 1199 418 q 1042 475 1122 477 l 844 475 q 798 464 806 477 q 791 409 790 452 l 791 145 q 807 69 787 88 q 917 51 827 50 l 1059 51 q 1261 88 1197 48 q 1372 242 1325 128 l 1392 231 l 1322 0 l 497 0 l 497 23 q 616 51 583 23 q 647 137 648 79 l 647 381 l 347 381 l 214 148 q 199 60 183 95 q 294 23 214 24 l 294 0 l 8 0 l 8 23 q 97 80 52 19 q 297 417 142 142 q 410 609 363 528 q 488 743 457 690 q 535 829 519 797 q 550 873 550 861 q 508 922 546 913 q 444 928 471 930 m 375 431 l 650 431 l 650 915 l 375 431 z "},"å":{"ha":681,"x_min":64,"x_max":661,"o":"m 547 106 q 558 73 547 87 q 591 59 568 60 q 619 68 604 60 q 644 87 633 76 l 661 70 q 607 13 647 41 q 519 -17 567 -14 q 458 13 481 -15 q 433 73 434 40 q 332 9 384 33 q 220 -17 279 -16 q 101 31 139 -14 q 64 145 63 77 q 155 293 64 237 q 431 417 245 350 l 431 515 q 406 599 431 566 q 317 634 380 633 q 243 611 275 633 q 208 559 210 589 l 216 520 q 201 472 216 492 q 150 451 185 452 q 106 471 123 452 q 89 520 90 490 q 162 622 92 581 q 322 665 231 663 q 488 615 429 663 q 547 498 547 568 l 547 106 m 294 48 q 386 79 343 51 q 431 132 428 108 l 431 376 q 252 293 322 339 q 180 176 182 247 q 212 87 181 124 q 294 48 242 50 m 172 892 q 220 1006 174 961 q 334 1053 265 1051 q 447 1006 402 1051 q 494 892 492 961 q 447 779 492 824 q 334 731 402 733 q 220 779 265 733 q 172 892 174 824 m 228 892 q 261 820 229 851 q 334 787 292 788 q 406 820 374 788 q 439 892 437 851 q 406 965 437 934 q 334 998 374 997 q 261 965 292 997 q 228 892 229 934 z "},"í":{"ha":375,"x_min":33,"x_max":378,"o":"m 253 112 q 271 43 252 66 q 345 20 291 20 l 345 0 l 33 0 l 33 20 q 112 43 89 20 q 134 112 134 66 l 134 503 q 121 561 136 546 q 39 576 105 576 l 39 598 q 155 628 98 609 q 253 665 212 647 l 253 112 m 334 981 q 367 968 357 981 q 378 937 378 956 q 345 887 386 918 q 114 743 304 857 l 69 743 q 273 951 232 914 q 334 981 315 989 z "},"ø":{"ha":755,"x_min":45,"x_max":697,"o":"m 45 317 q 130 558 45 456 q 386 665 215 660 q 459 657 426 665 q 517 640 492 650 l 583 773 l 639 773 l 558 614 q 666 493 635 566 q 697 328 698 419 q 627 100 700 208 q 367 -17 553 -9 q 300 -10 341 -16 q 233 6 259 -4 l 153 -139 l 97 -139 l 192 31 q 88 140 130 64 q 45 317 46 216 m 355 631 q 231 575 286 633 q 172 373 176 517 q 186 236 172 319 q 236 112 201 153 l 481 573 q 432 614 464 597 q 355 631 399 631 m 267 70 q 307 38 277 56 q 392 18 338 20 q 533 90 492 20 q 572 270 574 159 q 561 405 573 328 q 514 531 549 481 l 267 70 z "},"æ":{"ha":1064,"x_min":64,"x_max":1017,"o":"m 431 373 q 239 280 297 331 q 183 173 182 230 q 212 85 183 125 q 294 42 240 45 q 386 71 340 43 q 461 134 433 98 q 438 243 445 181 q 431 373 431 305 m 89 515 q 162 622 92 583 q 325 662 232 661 q 453 636 406 661 q 522 573 500 612 q 620 643 566 621 q 733 665 673 665 q 924 578 865 659 q 981 406 982 497 l 533 406 l 533 368 q 588 183 532 275 q 770 84 644 91 q 874 113 815 81 q 991 237 934 144 l 1017 223 q 973 146 997 186 q 914 70 949 106 q 830 8 879 33 q 717 -17 782 -16 q 595 3 651 -18 q 481 92 540 25 q 388 21 448 56 q 233 -17 328 -14 q 105 28 146 -15 q 64 137 64 71 q 98 241 64 198 q 186 315 132 284 q 304 368 240 345 q 431 412 368 391 l 431 479 q 410 591 433 552 q 319 631 388 631 q 237 606 265 630 q 208 553 208 582 q 210 532 208 543 q 211 509 211 522 q 189 460 209 473 q 150 448 168 448 q 108 465 126 448 q 89 515 90 481 m 705 623 q 577 556 618 618 q 536 445 536 494 l 819 445 q 837 451 830 445 q 844 467 844 457 q 818 565 846 512 q 705 623 789 618 z "},"Ä":{"ha":1064,"x_min":-6,"x_max":1075,"o":"m 192 87 q 208 47 189 66 q 302 26 227 27 l 302 0 l -6 0 l -6 26 q 40 36 18 26 q 72 56 61 45 q 156 198 85 55 q 525 970 227 340 l 558 970 q 910 196 843 338 q 989 56 977 53 q 1031 30 1011 35 q 1075 26 1050 25 l 1075 0 l 677 0 l 677 26 q 748 35 712 24 q 786 84 783 45 q 749 194 783 121 q 694 315 715 268 l 283 315 q 229 191 263 265 q 192 87 194 117 m 494 773 l 309 368 l 672 368 l 494 773 m 494 1154 q 479 1110 494 1131 q 431 1087 464 1088 q 381 1109 397 1088 q 364 1154 364 1129 q 381 1198 364 1178 q 431 1220 399 1219 q 478 1197 462 1219 q 494 1154 494 1176 m 600 1154 q 618 1198 600 1178 q 667 1220 635 1219 q 714 1197 698 1219 q 730 1154 730 1176 q 715 1110 730 1131 q 667 1087 700 1088 q 617 1109 633 1088 q 600 1154 600 1129 z "},"ì":{"ha":375,"x_min":0,"x_max":345,"o":"m 253 112 q 271 43 252 66 q 345 20 291 20 l 345 0 l 33 0 l 33 20 q 112 43 89 20 q 134 112 134 66 l 134 503 q 121 561 136 546 q 39 576 105 576 l 39 598 q 155 628 98 609 q 253 665 212 647 l 253 112 m 45 981 q 105 951 64 989 q 309 743 146 914 l 264 743 q 33 887 74 857 q 0 937 -7 918 q 11 968 0 956 q 45 981 22 981 z "},"Ö":{"ha":1120,"x_min":64,"x_max":1053,"o":"m 64 434 l 64 520 q 184 822 63 678 q 558 976 305 966 q 930 825 808 966 q 1053 520 1053 684 l 1053 456 q 929 129 1053 270 q 553 -20 805 -12 q 189 129 313 -10 q 64 434 64 267 m 225 473 q 296 182 222 325 q 558 28 370 39 q 817 175 740 37 q 892 473 894 312 q 822 770 895 625 q 558 926 749 915 q 293 765 364 913 q 225 473 221 616 m 505 1154 q 490 1110 505 1131 q 441 1087 475 1088 q 392 1109 408 1088 q 375 1154 375 1129 q 393 1198 375 1178 q 441 1220 410 1219 q 489 1197 473 1219 q 505 1154 505 1176 m 677 1087 q 628 1109 644 1088 q 611 1154 611 1129 q 629 1198 611 1178 q 677 1220 646 1219 q 726 1197 709 1219 q 742 1154 742 1176 q 726 1110 742 1131 q 677 1087 711 1088 z "},"Ü":{"ha":1136,"x_min":31,"x_max":1097,"o":"m 764 926 l 764 954 l 1097 954 l 1097 926 q 999 888 1027 924 q 972 795 971 851 l 972 345 q 869 76 972 176 q 572 -28 767 -24 q 275 58 378 -26 q 172 300 173 143 l 172 748 q 155 873 177 823 q 31 926 132 924 l 31 954 l 456 954 l 456 926 q 340 882 361 924 q 322 770 318 840 l 322 337 q 384 124 320 210 q 600 34 448 37 q 827 125 749 37 q 905 342 905 212 l 905 789 q 877 891 907 857 q 764 926 847 926 m 542 1154 q 527 1110 542 1131 q 478 1087 511 1088 q 428 1109 445 1088 q 411 1154 411 1129 q 429 1198 411 1178 q 478 1220 446 1219 q 526 1197 509 1219 q 542 1154 542 1176 m 714 1087 q 664 1109 681 1088 q 647 1154 647 1129 q 665 1198 647 1178 q 714 1220 682 1219 q 762 1197 745 1219 q 778 1154 778 1176 q 763 1110 778 1131 q 714 1087 747 1088 z "},"É":{"ha":964,"x_min":31,"x_max":942,"o":"m 31 954 l 847 954 l 861 745 l 833 745 q 784 861 821 822 q 644 901 747 901 l 425 901 q 335 888 351 904 q 322 801 319 873 l 322 581 q 331 537 321 549 q 380 526 340 525 l 595 526 q 715 558 686 526 q 747 662 744 591 l 772 662 l 772 331 l 747 331 q 718 433 747 395 q 595 473 689 471 l 380 473 q 329 463 338 474 q 322 409 320 451 l 322 145 q 340 68 318 85 q 456 54 361 52 l 636 54 q 808 87 747 50 q 917 239 868 124 l 942 231 l 869 0 l 31 0 l 31 26 q 137 47 101 25 q 172 123 172 70 l 172 826 q 140 902 173 878 q 31 926 107 926 l 31 954 m 616 1290 q 650 1277 640 1289 q 661 1245 661 1264 q 628 1196 669 1226 q 397 1050 587 1166 l 353 1050 q 556 1260 515 1223 q 616 1290 597 1297 z "},"ï":{"ha":375,"x_min":5,"x_max":372,"o":"m 253 112 q 271 43 252 66 q 345 20 291 20 l 345 0 l 33 0 l 33 20 q 112 43 89 20 q 134 112 134 66 l 134 503 q 121 561 136 546 q 39 576 105 576 l 39 598 q 155 628 98 609 q 253 665 212 647 l 253 112 m 72 779 q 22 800 39 780 q 5 845 5 821 q 23 890 5 869 q 72 912 41 911 q 120 889 104 911 q 136 845 136 867 q 121 801 136 823 q 72 779 105 780 m 241 845 q 259 890 241 869 q 309 912 277 911 q 356 889 340 911 q 372 845 372 867 q 357 801 372 823 q 309 779 342 780 q 258 800 275 780 q 241 845 241 821 z "},"ß":{"ha":761,"x_min":11,"x_max":694,"o":"m 220 0 l 11 0 l 11 26 q 83 55 66 26 q 100 134 101 83 l 100 703 q 165 907 100 825 q 364 992 231 989 q 563 935 497 991 q 628 787 628 880 q 578 637 628 699 q 428 548 528 576 q 628 468 562 534 q 694 295 694 401 q 629 84 695 179 q 419 -17 562 -11 q 318 14 356 -16 q 278 95 279 43 q 295 138 279 121 q 339 156 311 155 q 409 91 413 148 q 458 26 405 34 q 543 103 518 32 q 567 242 568 174 q 519 434 570 353 q 322 520 469 516 l 322 559 q 466 621 427 562 q 503 756 505 680 q 473 883 504 818 q 361 954 443 948 q 248 889 277 950 q 220 751 218 827 l 220 0 z "},"Ô":{"ha":1120,"x_min":64,"x_max":1053,"o":"m 64 434 l 64 520 q 184 822 63 678 q 558 976 305 966 q 930 825 808 966 q 1053 520 1053 684 l 1053 456 q 929 129 1053 270 q 553 -20 805 -12 q 189 129 313 -10 q 64 434 64 267 m 558 926 q 293 765 364 913 q 225 473 221 616 q 296 182 222 325 q 558 28 370 39 q 817 175 740 37 q 892 473 894 312 q 822 770 895 625 q 558 926 749 915 m 717 1050 l 561 1192 l 403 1050 l 364 1050 l 519 1284 l 600 1284 l 755 1050 l 717 1050 z "},"Á":{"ha":1064,"x_min":-6,"x_max":1075,"o":"m 192 87 q 208 47 189 66 q 302 26 227 27 l 302 0 l -6 0 l -6 26 q 40 36 18 26 q 72 56 61 45 q 156 198 85 55 q 525 970 227 340 l 558 970 q 910 196 843 338 q 989 56 977 53 q 1031 30 1011 35 q 1075 26 1050 25 l 1075 0 l 677 0 l 677 26 q 748 35 712 24 q 786 84 783 45 q 749 194 783 121 q 694 315 715 268 l 283 315 q 229 191 263 265 q 192 87 194 117 m 494 773 l 309 368 l 672 368 l 494 773 m 692 1290 q 725 1277 715 1289 q 736 1245 736 1264 q 703 1196 744 1226 q 472 1050 662 1166 l 428 1050 q 632 1260 591 1223 q 692 1290 673 1297 z "},"Ã":{"ha":1064,"x_min":-6,"x_max":1075,"o":"m 192 87 q 208 47 189 66 q 302 26 227 27 l 302 0 l -6 0 l -6 26 q 40 36 18 26 q 72 56 61 45 q 156 198 85 55 q 525 970 227 340 l 558 970 q 910 196 843 338 q 989 56 977 53 q 1031 30 1011 35 q 1075 26 1050 25 l 1075 0 l 677 0 l 677 26 q 748 35 712 24 q 786 84 783 45 q 749 194 783 121 q 694 315 715 268 l 283 315 q 229 191 263 265 q 192 87 194 117 m 494 773 l 309 368 l 672 368 l 494 773 m 392 1084 l 358 1084 q 399 1183 368 1145 q 486 1223 430 1221 q 574 1207 531 1221 q 644 1192 616 1194 q 687 1208 673 1193 q 708 1248 701 1223 l 742 1248 q 701 1154 732 1191 q 608 1115 670 1116 q 525 1130 564 1117 q 458 1145 486 1143 q 418 1130 434 1145 q 392 1084 402 1115 z "},"ã":{"ha":681,"x_min":64,"x_max":661,"o":"m 431 376 q 252 293 322 339 q 180 176 182 247 q 212 87 181 124 q 294 48 242 50 q 386 79 343 51 q 431 132 428 108 l 431 376 m 150 451 q 106 471 123 452 q 89 520 90 490 q 162 622 92 581 q 322 665 231 663 q 488 615 429 663 q 547 498 547 568 l 547 106 q 558 73 547 87 q 591 59 568 60 q 619 68 604 60 q 644 87 633 76 l 661 70 q 607 13 647 41 q 519 -17 567 -14 q 458 13 481 -15 q 433 73 434 40 q 332 9 384 33 q 220 -17 279 -16 q 101 31 139 -14 q 64 145 63 77 q 155 293 64 237 q 431 417 245 350 l 431 515 q 406 599 431 566 q 317 634 380 633 q 243 611 275 633 q 208 559 210 589 l 216 520 q 201 472 216 492 q 150 451 185 452 m 172 776 l 139 776 q 180 876 149 838 q 267 915 211 913 q 354 900 311 913 q 425 884 397 886 q 468 899 454 884 q 489 939 481 914 l 522 939 q 481 845 513 882 q 389 806 450 808 q 306 822 345 808 q 239 837 267 835 q 198 822 214 837 q 172 776 182 807 z "},"Ð":{"ha":1117,"x_min":0,"x_max":1050,"o":"m 892 470 q 785 780 894 658 q 431 906 676 902 q 347 886 370 907 q 325 820 323 865 l 325 512 l 606 512 l 606 465 l 325 465 l 325 159 q 343 71 322 96 q 441 48 363 47 q 772 162 654 50 q 892 470 890 274 m 33 954 l 522 954 q 899 833 752 953 q 1050 481 1045 713 q 898 130 1046 258 q 492 0 749 3 l 33 0 l 33 26 q 144 51 111 25 q 175 140 176 76 l 175 465 l 0 465 l 0 512 l 175 512 l 175 817 q 143 902 176 876 q 33 928 110 929 l 33 954 z "},"ð":{"ha":761,"x_min":47,"x_max":700,"o":"m 375 667 q 428 661 402 667 q 478 642 454 655 q 418 713 457 671 q 350 781 379 754 l 131 659 l 111 701 l 317 814 l 114 970 l 139 995 l 378 850 l 611 976 l 631 939 l 425 820 q 629 594 559 716 q 700 328 699 472 q 622 94 701 197 q 370 -17 543 -10 q 136 76 222 -14 q 47 323 50 167 q 129 559 47 456 q 375 667 210 662 m 175 370 q 220 152 173 272 q 389 20 267 31 q 535 99 493 24 q 575 273 576 173 q 527 509 576 394 q 355 631 477 623 q 212 544 251 626 q 175 370 173 461 z "},"Í":{"ha":528,"x_min":47,"x_max":481,"o":"m 339 787 l 339 142 q 369 55 338 84 q 481 26 401 26 l 481 0 l 47 0 l 47 26 q 161 54 131 26 q 189 142 191 82 l 189 787 q 168 888 193 852 q 47 926 144 925 l 47 954 l 481 954 l 481 926 q 365 891 393 926 q 339 787 336 857 m 406 1290 q 439 1277 429 1289 q 450 1245 450 1264 q 417 1196 458 1226 q 186 1050 376 1166 l 142 1050 q 346 1260 304 1223 q 406 1290 387 1297 z "},"Ì":{"ha":528,"x_min":47,"x_max":481,"o":"m 481 926 q 365 891 393 926 q 339 787 336 857 l 339 142 q 369 55 338 84 q 481 26 401 26 l 481 0 l 47 0 l 47 26 q 161 54 131 26 q 189 142 191 82 l 189 787 q 168 888 193 852 q 47 926 144 925 l 47 954 l 481 954 l 481 926 m 117 1290 q 177 1260 136 1297 q 380 1050 218 1223 l 336 1050 q 105 1196 146 1166 q 72 1245 64 1226 q 83 1277 72 1264 q 117 1290 94 1289 z "},"Ó":{"ha":1120,"x_min":64,"x_max":1053,"o":"m 64 434 l 64 520 q 184 822 63 678 q 558 976 305 966 q 930 825 808 966 q 1053 520 1053 684 l 1053 456 q 929 129 1053 270 q 553 -20 805 -12 q 189 129 313 -10 q 64 434 64 267 m 558 926 q 293 765 364 913 q 225 473 221 616 q 296 182 222 325 q 558 28 370 39 q 817 175 740 37 q 892 473 894 312 q 822 770 895 625 q 558 926 749 915 m 703 1290 q 736 1277 726 1289 q 747 1245 747 1264 q 714 1196 755 1226 q 484 1050 673 1166 l 439 1050 q 643 1260 602 1223 q 703 1290 684 1297 z "},"Ò":{"ha":1120,"x_min":64,"x_max":1053,"o":"m 64 434 l 64 520 q 184 822 63 678 q 558 976 305 966 q 930 825 808 966 q 1053 520 1053 684 l 1053 456 q 929 129 1053 270 q 553 -20 805 -12 q 189 129 313 -10 q 64 434 64 267 m 558 926 q 293 765 364 913 q 225 473 221 616 q 296 182 222 325 q 558 28 370 39 q 817 175 740 37 q 892 473 894 312 q 822 770 895 625 q 558 926 749 915 m 414 1290 q 474 1260 433 1297 q 677 1050 515 1223 l 633 1050 q 402 1196 444 1166 q 370 1245 361 1226 q 380 1277 370 1264 q 414 1290 391 1289 z "},"Õ":{"ha":1120,"x_min":64,"x_max":1053,"o":"m 400 1084 l 367 1084 q 407 1183 376 1145 q 494 1223 438 1221 q 582 1207 539 1221 q 653 1192 625 1194 q 695 1208 682 1193 q 717 1248 709 1223 l 750 1248 q 709 1154 740 1191 q 616 1115 678 1116 q 533 1130 572 1117 q 467 1145 494 1143 q 426 1130 442 1145 q 400 1084 410 1115 m 553 -20 q 189 129 313 -10 q 64 434 64 267 l 64 520 q 184 822 63 678 q 558 976 305 966 q 930 825 808 966 q 1053 520 1053 684 l 1053 456 q 929 129 1053 270 q 553 -20 805 -12 m 558 926 q 293 765 364 913 q 225 473 221 616 q 296 182 222 325 q 558 28 370 39 q 817 175 740 37 q 892 473 894 312 q 822 770 895 625 q 558 926 749 915 z "},"õ":{"ha":755,"x_min":45,"x_max":697,"o":"m 183 776 q 224 876 193 838 q 311 915 255 913 q 399 900 356 913 q 469 884 441 886 q 512 899 498 884 q 533 939 526 914 l 567 939 q 526 845 557 882 q 433 806 495 808 q 350 822 389 808 q 283 837 311 835 q 243 822 259 837 q 216 776 227 807 l 183 776 m 383 665 q 617 563 538 660 q 697 337 696 467 q 621 95 699 200 q 364 -17 543 -11 q 125 84 205 -12 q 45 323 45 180 q 133 563 45 465 q 383 665 220 661 m 355 626 q 213 544 255 621 q 172 370 171 467 q 217 148 170 264 q 383 20 264 31 q 537 102 500 24 q 570 284 573 180 q 522 502 571 387 q 355 626 473 616 z "},"Š":{"ha":758,"x_min":53,"x_max":692,"o":"m 536 1284 l 575 1284 l 419 1050 l 339 1050 l 183 1284 l 222 1284 l 380 1143 l 536 1284 m 205 784 q 280 653 208 707 q 447 549 353 600 q 615 431 542 498 q 692 262 688 365 q 612 56 691 130 q 386 -20 533 -18 q 246 -1 292 -17 q 175 18 200 16 q 144 7 156 17 q 125 -20 132 -3 l 106 -20 l 53 287 l 81 287 q 193 107 115 184 q 372 26 271 30 q 504 82 458 29 q 550 198 549 134 q 476 339 546 284 q 313 443 406 394 q 151 556 221 491 q 78 728 81 622 q 153 903 79 833 q 364 976 227 973 q 484 954 439 973 q 555 931 528 934 q 588 947 578 932 q 597 976 597 962 q 609 976 601 976 q 619 976 618 976 l 650 687 l 623 687 q 534 848 596 773 q 367 928 473 924 q 247 882 288 926 q 205 784 205 839 z "},"š":{"ha":528,"x_min":50,"x_max":486,"o":"m 66 976 l 106 976 l 264 831 l 419 976 l 458 976 l 302 743 l 222 743 l 66 976 m 375 640 q 394 645 385 640 q 408 665 402 650 l 428 665 l 439 467 l 414 467 q 362 583 400 536 q 250 631 324 629 q 174 604 203 630 q 144 540 145 578 q 197 449 146 484 q 314 382 248 413 q 432 303 380 351 q 486 173 484 255 q 428 37 484 88 q 283 -17 371 -15 q 173 -2 215 -14 q 114 12 131 9 q 93 6 102 12 q 83 -11 84 0 l 61 -11 l 53 214 l 75 214 q 145 75 100 133 q 269 15 191 18 q 358 45 325 16 q 392 123 391 74 q 337 216 389 180 q 219 283 286 252 q 102 361 153 315 q 50 487 52 408 q 99 611 50 560 q 244 665 149 663 q 331 652 297 663 q 375 640 364 641 z "},"Ú":{"ha":1136,"x_min":31,"x_max":1097,"o":"m 764 926 l 764 954 l 1097 954 l 1097 926 q 999 888 1027 924 q 972 795 971 851 l 972 345 q 869 76 972 176 q 572 -28 767 -24 q 275 58 378 -26 q 172 300 173 143 l 172 748 q 155 873 177 823 q 31 926 132 924 l 31 954 l 456 954 l 456 926 q 340 882 361 924 q 322 770 318 840 l 322 337 q 384 124 320 210 q 600 34 448 37 q 827 125 749 37 q 905 342 905 212 l 905 789 q 877 891 907 857 q 764 926 847 926 m 739 1290 q 773 1277 762 1289 q 783 1245 783 1264 q 750 1196 791 1226 q 519 1050 709 1166 l 475 1050 q 679 1260 637 1223 q 739 1290 720 1297 z "},"Ÿ":{"ha":1061,"x_min":22,"x_max":1039,"o":"m 742 926 l 742 954 l 1039 954 l 1039 926 q 920 856 981 932 q 633 426 858 781 l 633 140 q 665 51 632 76 q 775 26 697 25 l 775 0 l 342 0 l 342 26 q 453 54 422 26 q 484 142 485 82 l 484 409 q 278 699 351 594 q 166 850 205 804 q 98 910 127 897 q 22 926 68 923 l 22 954 l 461 954 l 461 926 q 370 908 393 921 q 350 878 348 895 q 380 818 350 865 q 452 709 410 770 q 537 589 494 648 q 606 492 579 531 q 669 591 631 531 q 749 713 708 651 q 818 822 790 776 q 847 881 846 869 q 818 912 846 899 q 742 926 789 925 m 478 1154 q 463 1110 478 1131 q 414 1087 447 1088 q 364 1109 380 1088 q 347 1154 347 1129 q 365 1198 347 1178 q 414 1220 382 1219 q 462 1197 446 1219 q 478 1154 478 1176 m 583 1154 q 601 1198 583 1178 q 650 1220 618 1219 q 698 1197 682 1219 q 714 1154 714 1176 q 699 1110 714 1131 q 650 1087 683 1088 q 600 1109 616 1088 q 583 1154 583 1129 z "},"ÿ":{"ha":616,"x_min":-28,"x_max":614,"o":"m 208 -272 q 138 -316 174 -304 q 78 -328 102 -328 q 17 -306 37 -326 q -3 -253 -3 -286 q 12 -212 -3 -229 q 56 -195 26 -195 q 106 -205 91 -195 q 147 -216 121 -214 q 210 -177 182 -219 q 289 -11 237 -134 q 134 348 191 218 q 47 538 77 479 q 3 611 18 597 q -28 623 -13 626 l -28 645 l 261 645 l 261 623 q 196 610 211 623 q 183 581 182 597 q 201 513 183 565 q 247 392 220 460 q 300 258 273 323 q 345 151 326 194 q 429 389 378 243 q 484 581 479 535 q 470 611 485 599 q 408 623 455 623 l 408 645 l 614 645 l 614 623 q 591 620 600 623 q 572 606 582 616 q 506 462 550 581 q 409 188 463 342 q 303 -96 355 34 q 208 -272 250 -227 m 256 845 q 240 801 256 823 q 192 779 225 780 q 142 800 159 780 q 125 845 125 821 q 142 890 125 869 q 192 912 160 911 q 239 889 223 911 q 256 845 256 867 m 361 845 q 378 890 361 869 q 428 912 396 911 q 475 889 459 911 q 492 845 492 867 q 476 801 492 823 q 428 779 461 780 q 378 800 395 780 q 361 845 361 821 z "},"Þ":{"ha":831,"x_min":36,"x_max":786,"o":"m 36 0 l 36 28 q 156 66 132 29 q 175 170 179 103 l 175 817 q 144 903 176 879 q 36 926 113 927 l 36 954 l 458 954 l 458 926 q 346 904 375 927 q 319 817 317 880 l 319 762 q 327 743 319 749 q 358 736 336 736 l 467 736 q 700 674 616 735 q 786 512 785 613 q 700 323 785 385 q 450 262 615 262 l 370 262 q 331 257 343 262 q 319 239 319 252 l 319 153 q 342 60 317 93 q 458 26 368 26 l 458 0 l 36 0 m 395 690 q 335 682 352 690 q 319 656 319 675 l 319 342 q 334 314 319 322 q 380 307 348 306 q 569 358 507 307 q 631 500 631 408 q 575 639 631 589 q 395 690 519 689 z "},"þ":{"ha":755,"x_min":14,"x_max":703,"o":"m 389 23 q 540 116 498 28 q 581 307 583 203 q 539 481 582 391 q 395 578 497 571 q 301 549 344 576 q 233 495 259 522 l 233 109 q 292 55 250 84 q 389 23 335 26 m 114 781 q 102 862 117 839 q 20 884 87 885 l 20 906 q 129 945 69 922 q 233 992 188 968 l 233 553 q 323 625 271 593 q 450 659 376 657 q 642 563 581 654 q 703 351 703 472 q 621 91 701 195 q 397 -17 541 -12 q 304 -4 343 -16 q 233 31 264 8 l 233 -208 q 254 -284 232 -260 q 342 -309 277 -308 q 342 -317 342 -309 q 342 -330 342 -325 l 14 -330 l 14 -309 q 92 -284 69 -308 q 114 -208 115 -260 l 114 781 z "},"∙":{"ha":345,"x_min":92,"x_max":258,"o":"m 258 473 q 234 415 258 439 q 175 389 210 391 q 117 415 141 391 q 92 473 93 439 q 117 531 93 507 q 175 556 141 555 q 234 531 210 555 q 258 473 258 507 z "},"µ":{"ha":789,"x_min":-67,"x_max":750,"o":"m 236 592 q 213 494 227 553 q 186 372 200 435 q 164 258 172 308 q 155 186 155 208 q 178 117 154 148 q 267 84 203 86 q 357 110 323 84 q 412 194 390 136 q 453 350 433 252 q 503 592 472 448 l 616 592 q 561 342 594 496 q 525 151 528 188 q 541 103 524 124 q 597 81 557 83 q 675 120 647 83 q 714 209 704 157 q 719 222 714 214 q 733 231 723 231 q 747 226 743 231 q 750 212 750 220 q 709 71 751 149 q 564 -14 667 -6 q 482 28 508 -12 q 456 125 456 68 q 387 30 433 71 q 256 -14 342 -11 q 157 27 196 -12 q 109 128 117 65 q 74 -41 85 34 q 56 -171 64 -117 q 34 -254 49 -225 q -12 -283 20 -282 q -55 -262 -42 -282 q -67 -211 -67 -242 q -53 -143 -67 -196 q -12 4 -38 -90 q 49 245 14 99 q 125 592 85 391 l 236 592 z "},"¶":{"ha":692,"x_min":45,"x_max":644,"o":"m 370 0 l 297 0 l 297 526 q 111 596 176 528 q 45 762 45 663 q 112 924 47 859 q 278 992 178 989 l 644 992 l 644 937 l 564 937 l 564 0 l 492 0 l 492 937 l 370 937 l 370 0 z "},"¾":{"ha":1103,"x_min":25,"x_max":1075,"o":"m 925 462 l 717 184 l 925 184 l 925 462 m 925 0 l 925 134 l 686 134 l 686 190 l 953 543 l 989 543 l 989 184 l 1075 184 l 1075 134 l 989 134 l 989 0 l 925 0 m 205 -17 l 833 970 l 895 970 l 267 -17 l 205 -17 m 47 831 l 33 840 q 97 924 54 886 q 216 964 140 962 q 318 932 286 963 q 350 862 350 901 q 327 801 349 831 q 267 743 304 772 q 353 694 323 728 q 383 595 383 659 q 323 473 383 531 q 142 412 262 416 q 53 426 81 412 q 25 462 25 440 q 33 485 25 477 q 58 492 41 492 q 130 465 99 489 q 192 437 161 440 q 275 469 236 437 q 317 568 314 501 q 278 652 319 617 q 134 690 238 686 l 134 706 q 250 754 218 715 q 281 831 282 793 q 250 892 279 871 q 183 912 220 912 q 105 889 141 911 q 47 831 69 867 z "},"−":{"ha":1153,"x_min":172,"x_max":978,"o":"m 978 454 l 978 362 l 172 362 l 172 454 l 978 454 z "},"¼":{"ha":1103,"x_min":66,"x_max":1075,"o":"m 925 462 l 717 184 l 925 184 l 925 462 m 189 862 q 185 882 189 874 q 172 890 180 890 q 123 876 153 888 q 75 854 94 863 l 66 867 l 261 962 l 261 528 q 274 450 258 468 q 367 434 291 432 l 367 420 l 78 420 l 78 434 q 174 452 156 433 q 189 528 193 472 l 189 862 m 925 0 l 925 134 l 686 134 l 686 190 l 953 543 l 989 543 l 989 184 l 1075 184 l 1075 134 l 989 134 l 989 0 l 925 0 m 205 -17 l 833 970 l 895 970 l 269 -17 l 205 -17 z "},"½":{"ha":1103,"x_min":66,"x_max":1089,"o":"m 1047 409 q 1015 312 1046 360 q 938 217 983 263 q 846 129 892 170 q 770 56 800 88 l 956 56 q 1029 70 1002 56 q 1072 115 1056 84 l 1089 112 l 1042 0 l 689 0 l 689 6 q 757 77 711 34 q 851 170 803 120 q 935 270 900 220 q 972 362 970 320 q 937 453 971 419 q 847 487 903 486 q 760 458 796 486 q 711 384 724 431 l 689 389 q 757 503 711 463 q 886 543 804 542 q 1010 498 973 540 q 1047 409 1048 457 m 189 862 q 185 882 189 874 q 172 890 180 890 q 122 874 152 888 q 75 850 93 861 l 66 867 l 261 962 l 261 528 q 274 450 258 468 q 367 434 291 432 l 367 420 l 78 420 l 78 434 q 174 452 156 433 q 189 528 193 472 l 189 862 m 205 -17 l 833 970 l 895 970 l 269 -17 l 205 -17 z "},"ª":{"ha":511,"x_min":47,"x_max":494,"o":"m 155 890 l 161 862 q 149 830 161 844 q 111 814 136 815 q 78 828 92 815 q 64 862 64 841 q 120 937 67 910 q 239 964 173 964 q 362 934 315 964 q 411 845 410 903 l 411 584 q 418 553 411 566 q 441 540 425 541 q 465 545 452 540 q 484 559 477 551 l 494 545 q 454 507 481 525 q 389 487 427 488 q 344 505 358 488 q 328 548 330 522 q 248 505 289 522 q 161 487 207 488 q 77 518 106 488 q 47 601 47 548 q 115 705 47 665 q 322 792 183 745 l 322 873 q 302 925 323 907 q 233 943 281 943 q 178 927 199 942 q 155 890 156 913 m 494 412 l 494 337 l 47 337 l 47 412 l 494 412 m 322 764 q 188 705 241 740 q 134 623 136 671 q 156 563 134 590 q 220 534 178 535 q 273 543 247 532 q 322 589 299 553 l 322 764 z "},"º":{"ha":567,"x_min":33,"x_max":525,"o":"m 525 412 l 525 337 l 33 337 l 33 412 l 525 412 m 283 964 q 463 897 401 962 q 525 723 524 831 q 463 558 525 627 q 275 487 400 490 q 95 555 156 489 q 33 723 33 621 q 99 894 34 826 q 283 964 163 962 m 264 937 q 148 861 168 929 q 131 751 127 793 q 163 600 129 681 q 289 512 197 519 q 398 565 367 515 q 428 682 429 614 q 395 849 430 768 q 264 937 360 930 z "},"«":{"ha":700,"x_min":64,"x_max":672,"o":"m 64 323 q 202 449 150 398 q 283 529 254 499 q 327 572 313 559 q 353 584 342 585 q 317 485 382 575 q 192 323 252 394 q 317 161 252 252 q 353 62 382 71 q 327 75 342 62 q 283 118 313 88 q 202 199 254 148 q 64 323 150 250 m 334 323 q 471 449 419 398 q 553 529 524 499 q 596 572 582 559 q 623 584 611 585 q 587 485 652 575 q 461 323 522 394 q 587 161 522 252 q 623 62 652 71 q 596 75 611 62 q 553 118 582 88 q 471 199 524 148 q 334 323 419 250 z "},"‹":{"ha":428,"x_min":64,"x_max":403,"o":"m 64 323 q 202 449 150 398 q 283 529 254 499 q 327 572 313 559 q 353 584 342 585 q 317 485 382 575 q 192 323 252 394 q 317 161 252 252 q 353 62 382 71 q 327 75 342 62 q 283 118 313 88 q 202 199 254 148 q 64 323 150 250 z "},"»":{"ha":700,"x_min":25,"x_max":633,"o":"m 633 323 q 493 199 546 250 q 412 118 440 148 q 369 75 383 88 q 345 62 354 62 q 380 161 315 71 q 505 323 445 252 q 380 485 445 394 q 345 584 315 575 q 369 572 354 585 q 412 529 383 559 q 493 449 440 499 q 633 323 546 398 m 364 323 q 224 199 277 250 q 142 118 171 148 q 99 75 114 88 q 75 62 85 62 q 111 161 46 71 q 236 323 176 252 q 111 485 176 394 q 75 584 46 575 q 99 572 85 585 q 142 529 114 559 q 224 449 171 499 q 364 323 277 398 z "},"±":{"ha":1153,"x_min":172,"x_max":981,"o":"m 172 109 l 981 109 l 981 18 l 172 18 l 172 109 m 530 479 l 172 479 l 172 570 l 530 570 l 530 801 l 623 801 l 623 570 l 981 570 l 981 479 l 623 479 l 623 248 l 530 248 l 530 479 z "},"›":{"ha":428,"x_min":25,"x_max":364,"o":"m 364 323 q 224 199 277 250 q 142 118 171 148 q 99 75 114 88 q 75 62 85 62 q 111 161 46 71 q 236 323 176 252 q 111 485 176 394 q 75 584 46 575 q 99 572 85 585 q 142 529 114 559 q 224 449 171 499 q 364 323 277 398 z "},"∆":{"ha":966,"x_min":33,"x_max":939,"o":"m 497 970 l 939 0 l 33 0 l 475 970 l 497 970 m 439 745 l 134 62 l 747 62 l 439 745 z "},"∂":{"ha":692,"x_min":92,"x_max":606,"o":"m 281 731 q 244 742 258 731 q 231 773 231 752 q 270 843 232 814 q 370 873 308 871 q 537 779 471 872 q 606 507 604 686 q 520 141 604 292 q 297 -17 437 -9 q 149 52 204 -14 q 92 229 93 119 q 162 439 94 360 q 336 520 230 518 q 434 492 396 521 q 497 393 473 463 q 512 487 508 433 q 517 598 517 541 q 494 771 517 713 q 428 829 472 829 q 359 780 392 823 q 281 731 327 737 m 355 481 q 239 402 287 481 q 189 170 191 323 q 227 43 191 78 q 306 9 262 7 q 432 102 389 13 q 475 320 475 191 q 442 437 474 394 q 355 481 410 481 z "},"≠":{"ha":1153,"x_min":172,"x_max":978,"o":"m 558 320 l 978 320 l 978 231 l 500 231 l 334 18 l 261 73 l 389 231 l 172 231 l 172 320 l 444 320 l 586 498 l 172 498 l 172 587 l 647 587 l 814 801 l 880 748 l 758 587 l 978 587 l 978 498 l 697 498 l 558 320 z "},"·":{"ha":697,"x_min":261,"x_max":433,"o":"m 347 373 q 288 399 313 374 q 261 459 262 425 q 288 519 262 494 q 347 545 313 544 q 407 519 382 544 q 433 459 432 494 q 407 399 432 425 q 347 373 382 374 z "},"•":{"ha":817,"x_min":208,"x_max":606,"o":"m 406 709 q 550 647 496 706 q 606 509 604 587 q 550 373 604 431 q 406 312 496 315 q 263 373 317 315 q 208 509 210 431 q 263 647 210 587 q 406 709 317 706 z "},"∫":{"ha":692,"x_min":31,"x_max":656,"o":"m 486 973 q 416 790 431 964 q 403 395 401 617 q 345 -69 404 107 q 144 -250 285 -245 q 60 -223 90 -249 q 31 -155 31 -197 q 48 -107 31 -123 q 97 -92 66 -91 q 157 -135 151 -96 q 200 -180 163 -174 q 271 -8 256 -173 q 283 398 286 156 q 342 857 282 677 q 542 1042 401 1036 q 626 1016 596 1042 q 656 948 655 991 q 638 902 656 917 q 589 887 621 887 q 529 930 535 892 q 486 973 524 968 z "},"‚":{"ha":345,"x_min":69,"x_max":272,"o":"m 81 64 q 101 117 81 95 q 164 140 121 139 q 237 111 205 140 q 272 18 270 82 q 228 -112 273 -52 q 86 -228 183 -173 l 69 -208 q 174 -122 130 -168 q 220 -25 218 -77 q 213 -3 220 -8 q 192 1 206 1 q 173 0 183 1 q 153 0 163 0 q 101 15 121 0 q 81 64 81 30 z "},"˘":{"ha":692,"x_min":147,"x_max":536,"o":"m 178 951 q 242 871 197 888 q 342 857 286 854 q 441 871 397 854 q 505 951 486 888 l 536 951 q 480 824 528 876 q 342 770 433 772 q 203 824 250 772 q 147 951 155 876 l 178 951 z "},"ˇ":{"ha":692,"x_min":150,"x_max":542,"o":"m 150 976 l 189 976 l 347 831 l 503 976 l 542 976 l 386 743 l 306 743 l 150 976 z "},"˙":{"ha":692,"x_min":275,"x_max":419,"o":"m 347 773 q 297 794 317 774 q 275 845 276 815 q 297 896 276 876 q 347 918 317 917 q 398 896 377 917 q 419 845 418 876 q 398 794 418 815 q 347 773 377 774 z "},"◊":{"ha":1383,"x_min":294,"x_max":1086,"o":"m 294 456 l 686 956 l 1086 459 l 686 -39 l 294 456 m 689 834 l 392 459 l 689 84 l 991 459 l 689 834 z "},"∕":{"ha":231,"x_min":-229,"x_max":458,"o":"m 458 973 l -168 -17 l -229 -17 l 397 973 l 458 973 z "},"∏":{"ha":1153,"x_min":45,"x_max":1105,"o":"m 45 1050 l 1105 1050 l 1105 995 l 983 995 l 983 -272 l 1105 -272 l 1105 -328 l 742 -328 l 742 -272 l 856 -272 l 856 995 l 294 995 l 294 -272 l 408 -272 l 408 -328 l 45 -328 l 45 -272 l 167 -272 l 167 995 l 45 995 l 45 1050 z "}}}
